<svg id="Ebene_1" data-name="Ebene 1" xmlns="http://www.w3.org/2000/svg" viewBox="0 0 232.86 331.94"><defs><style>.cls-1{fill:#252525;}</style></defs><path class="cls-1" d="M116.43,57.55a91.16,91.16,0,1,0,64.44,26.7A90.87,90.87,0,0,0,116.43,57.55ZM171.64,203.9a78.1,78.1,0,1,1,22.86-55.21A77.83,77.83,0,0,1,171.64,203.9Z"/><path class="cls-1" d="M176.82,49.13V6.53A6.53,6.53,0,0,0,170.29,0h-109a6.53,6.53,0,0,0-6.53,6.53V50a116.37,116.37,0,0,0,0,197.48v78h0A6.44,6.44,0,0,0,56,329.16,6.51,6.51,0,0,0,65,330.74l50.75-35.81,50.42,35.58a6.53,6.53,0,0,0,10.61-5.1V248.25a116.48,116.48,0,0,0,0-199.12Zm-109-36.07h95.94V42.31l-.25-.1c-2.77-1.23-5.58-2.35-8.46-3.36l-.08,0a116.29,116.29,0,0,0-16.19-4.39l-.12,0c-2.16-.42-4.34-.77-6.54-1.07l-1.51-.19c-1.8-.22-3.62-.39-5.44-.53-.59,0-1.17-.1-1.76-.13-2.31-.14-4.64-.23-7-.23s-4.74.09-7.08.24c-.66,0-1.31.09-2,.15-1.77.13-3.53.31-5.28.52l-1.86.24c-2.18.3-4.35.65-6.5,1.08l-.29,0q-3.56.72-7,1.65l-.25.06c-.52.14-1,.3-1.55.45a115.93,115.93,0,0,0-11.45,3.9c-.35.15-.71.28-1.06.42-1.16.48-2.29,1-3.43,1.5l-.85.36Zm95.94,299.76L115.4,281.08,67.82,312.82V254.5l.84.36c1.14.52,2.28,1,3.44,1.5l1,.41a114.48,114.48,0,0,0,11.59,3.94l1.44.42.23.06c2.33.62,4.69,1.18,7.07,1.65l.23.05c2.17.42,4.35.78,6.56,1.09l1.84.23c1.75.22,3.52.39,5.29.53.66.05,1.31.11,2,.15,2.34.14,4.7.23,7.08.23s4.67-.09,7-.23c.59,0,1.17-.08,1.76-.13,1.82-.13,3.64-.31,5.44-.53l1.51-.19q3.3-.45,6.54-1.06l.12,0A114.92,114.92,0,0,0,155,258.56l.08,0q4.32-1.51,8.46-3.36l.25-.1Zm25.76-91a103.22,103.22,0,0,1-23.05,17.36q-2.28,1.28-4.65,2.43l-1.09.53c-1.54.73-3.11,1.42-4.69,2.08-.79.33-1.59.63-2.38.94-1,.39-2,.77-3,1.13s-1.83.63-2.75.93-1.92.58-2.88.85c-1.66.48-3.35.92-5,1.31-.95.22-1.89.45-2.85.65s-1.9.34-2.85.51-2.08.35-3.13.5c-.88.13-1.76.24-2.64.34-1.25.14-2.5.26-3.76.36-.73.06-1.45.12-2.18.16-2,.12-4,.2-6.1.2s-4.18-.08-6.25-.21c-.66,0-1.32-.1-2-.15-1.42-.11-2.84-.25-4.24-.42-.73-.09-1.46-.17-2.19-.28-1.47-.2-2.92-.45-4.37-.72-.56-.1-1.13-.19-1.68-.3-1.88-.38-3.74-.82-5.58-1.3-.71-.19-1.42-.41-2.12-.61-1.24-.35-2.48-.72-3.7-1.12L82,246.16c-1.22-.43-2.43-.89-3.63-1.37-.66-.26-1.33-.5-2-.78q-2.56-1.08-5.06-2.29c-.69-.34-1.37-.7-2-1.05q-1.62-.82-3.21-1.71A103.35,103.35,0,0,1,65.8,58.58c1.07-.6,2.15-1.18,3.25-1.75.7-.36,1.39-.73,2.1-1.07q2.52-1.24,5.12-2.34c.59-.25,1.19-.47,1.78-.71,1.29-.51,2.58-1,3.9-1.47.75-.27,1.52-.52,2.28-.77,1.26-.42,2.53-.8,3.81-1.17.71-.2,1.4-.41,2.11-.6,1.83-.48,3.69-.91,5.56-1.3.57-.11,1.15-.2,1.72-.3,1.43-.27,2.88-.51,4.33-.72L104,46.1c1.4-.17,2.81-.31,4.22-.42l2-.15c2.07-.12,4.15-.21,6.25-.21s4.08.08,6.1.2c.73,0,1.45.11,2.18.16,1.26.1,2.51.22,3.76.37l2.64.33c1,.15,2.09.33,3.13.5s1.91.32,2.85.51,1.9.43,2.85.65c1.73.41,3.45.85,5.14,1.34.91.26,1.81.52,2.71.8s1.88.63,2.82,1,1.93.69,2.89,1.06,1.65.63,2.46,1c1.33.55,2.65,1.14,4,1.75.42.2.86.37,1.28.58q2.58,1.24,5.09,2.64a103.36,103.36,0,0,1,23.23,163.64Z"/><path class="cls-1" d="M165.5,118l-26.81,0L130.58,93l-.07-.26a14.92,14.92,0,0,0-3.63-6A14.76,14.76,0,0,0,121,83.09h0a14.73,14.73,0,0,0-18.52,9.5l0,0-8.22,25.48-25.75,0a14.8,14.8,0,0,0-13,6h0a14.81,14.81,0,0,0,3.27,20.61h0l21.7,15.7-8.32,25.47-.19.7a14.72,14.72,0,0,0,22.88,15.75l21.66-15.8,20.79,15.17a14.66,14.66,0,0,0,14.06,2.78h0a14.74,14.74,0,0,0,9.48-18.56v0l-8.33-25.46,21.69-15.71.29-.22a14.91,14.91,0,0,0,4.2-5A14.7,14.7,0,0,0,176,122.38l0,0h0A14.67,14.67,0,0,0,165.5,118Zm1.22,13.53a1.68,1.68,0,0,1,.47,1.2,1.75,1.75,0,0,1-.18.77,1.78,1.78,0,0,1-.52.6l-.4.32L141,152.64a6.53,6.53,0,0,0-2.29,7.54l9.59,29.33.18.59a1.75,1.75,0,0,1-.16,1.13,1.7,1.7,0,0,1-.81.78l-.37.12a1.78,1.78,0,0,1-.69,0,1.82,1.82,0,0,1-.79-.38l-.74-.55-24.62-18a6.51,6.51,0,0,0-7.75.07L87.12,191.83a1.73,1.73,0,0,1-1.3.3,1.64,1.64,0,0,1-1.1-.67,1.66,1.66,0,0,1-.3-.74,1.78,1.78,0,0,1,.07-.82l.11-.39,9.67-29.57a6.52,6.52,0,0,0-2.37-7.3L66.62,134.35l-.39-.29a1.72,1.72,0,0,1-.58-1,1.77,1.77,0,0,1,.23-1.16l.19-.26a1.47,1.47,0,0,1,.54-.41h0a1.78,1.78,0,0,1,.87-.17,6.91,6.91,0,0,0,.91,0l30.5.06a6.53,6.53,0,0,0,6.2-4.51l9.68-30a1.78,1.78,0,0,1,.86-1,1.71,1.71,0,0,1,2,.32,1.76,1.76,0,0,1,.41.69l.13.38,9.56,29.62a6.52,6.52,0,0,0,6.49,4.51l31.26-.06v0a1.67,1.67,0,0,1,1.19.47Z"/></svg>