<svg id="Ebene_1" data-name="Ebene 1" xmlns="http://www.w3.org/2000/svg" viewBox="0 0 1080 1080"><defs><style>.cls-1{fill:#252525;}</style></defs><path class="cls-1" d="M886.52,239.13H747.75v-49.8a41.76,41.76,0,0,0-83.51,0v49.8H424.15v-49.8a41.76,41.76,0,0,0-83.51,0v49.8H193.48a41.5,41.5,0,0,0-41.5,41.5v610a41.5,41.5,0,0,0,41.5,41.5h693a41.5,41.5,0,0,0,41.5-41.5v-610A41.5,41.5,0,0,0,886.52,239.13Zm-41.5,610H235v-527H340.64v66.4a41.76,41.76,0,0,0,83.51,0v-66.4H664.24v66.4a41.76,41.76,0,0,0,83.51,0v-66.4H845Z"/><path class="cls-1" d="M724.67,507.87h-166a41.76,41.76,0,0,0,0,83.51h166a41.76,41.76,0,0,0,0-83.51Z"/><path class="cls-1" d="M525.47,685.32h-166a41.76,41.76,0,0,0,0,83.52h166a41.76,41.76,0,0,0,0-83.52Z"/></svg>