<svg id="Ebene_1" data-name="Ebene 1" xmlns="http://www.w3.org/2000/svg" viewBox="0 0 1080 1080"><defs><style>.cls-1{fill:#f5f3f2;}</style></defs><path class="cls-1" d="M675.27,312c15-3,31-1.91,46.57-.87,8.17.56,16.61,1.12,25,1.13H747c44.24,0,63.07-19,70.36-30.35,10.72-16.66,10.85-37.16,10.95-53.64.19-31.85.28-64.12.28-95.92,0-24.4-1.48-49.62-19.18-66.32-6.61-6.25-14.94-10.66-25.46-13.48-10.21-2.74-21-3.61-31.26-4.26-43.36-2.75-89.33-5.08-132.89-.69-50,5-90.65,18.26-124.22,40.46-42.87,28.33-76.47,74-94.62,128.59-14.77,44.44-19.77,95-14.89,150.37-20.34-2.46-46.66-5.08-71.46.09-20.24,4.22-38.31,13.88-50.88,27.2-9.43,10-12.54,18.14-12.35,32.26V445c0,38.19,0,77.69-.18,116.58-.08,16.33-.18,36.65,10.43,53.14,6.81,10.58,24.26,28.48,64.61,29.44,9.07.22,18.16-.33,26.95-.86h.15c10.93-.66,22.2-1.35,33.12-.47l-.26,299.49c0,30.6,3.59,67.72,32,83.29,13.62,7.46,29,7.5,42.62,7.54l126.65.32h1.59c19.15,0,37.6-.91,52.71-11.86,22.81-16.53,26-46.84,26-77.14L668,642.65c14.33-1.86,29.37-.6,44,.62,9.38.78,19.07,1.59,28.73,1.62h.42c35.32,0,63.1-13.63,74.3-36.46,6.56-13.36,6.87-28.58,7.12-40.81.84-41.46.85-83.51,0-125-.25-12.23-.56-27.46-7.16-40.82-11.18-22.64-38.82-36.15-74-36.15h-.58c-9.46,0-19,.82-28.17,1.58-14.69,1.21-29.84,2.46-44.24.47l-.31-46.63c0-2.65,0-5.34.87-6.52C670.11,313,674,312.26,675.27,312ZM575.16,856.91v1q0,41.16,0,82.31h-96V901q0-145.8,0-291.59v-1.17a108.65,108.65,0,0,0-.43-11.84c-2.83-27.34-22.27-45.16-49.52-45.4-21.4-.18-43-.15-63.81-.12h-1.1l-19.44,0V459.69l35.3,0c14.8,0,30.12,0,45.48-.06,16.15-.1,29.62-5.08,39-14.39S478.9,422.51,479,406.39c.12-12.79.06-25.64,0-38.09V368c-.11-24.06-.22-48.95.92-73.15,2.39-51.23,19.69-90.28,52.91-119.38,26.28-23,58.69-35.49,96.33-37,28.33-1.15,56.13-.89,85.56-.6L735,138v80.2l-2.47.06c-7.13.21-14.53.28-21.72.36h-.23c-17.82.17-36.24.35-54.64,2.6-23.36,2.85-42.05,11.38-55.55,25.34s-21.46,33.19-23.25,56.74c-2.75,36.1-2.11,72.6-1.5,107.89v.39c.25,14.22,5.4,26.28,14.91,34.89s22.45,13.06,37.73,13.13c26.54.12,53.5.09,77.29.07h24.22V550.9c-7.94,0-15.82.08-23.49.14h-.24c-24,.19-48.79.38-73.06-.43-17.64-.58-31.86,4.24-42.23,14.32s-15.94,25-15.87,43C575.26,690.91,575.21,775.3,575.16,856.91Z"/></svg>