<svg id="Ebene_1" data-name="Ebene 1" xmlns="http://www.w3.org/2000/svg" viewBox="0 0 1080 1080"><defs><style>.cls-1{fill:#252525;}</style></defs><path class="cls-1" d="M540,626.32a47.41,47.41,0,0,0,47.45-47.16V315.06a47.45,47.45,0,0,0-94.9,0v264.1A47.41,47.41,0,0,0,540,626.32Z"/><path class="cls-1" d="M583.58,714a49.5,49.5,0,0,0-4.34-8.1,71.35,71.35,0,0,0-5.85-7.17,55.24,55.24,0,0,0-7.18-5.86,45.56,45.56,0,0,0-17-7,43.34,43.34,0,0,0-18.49,0,47.53,47.53,0,0,0-8.86,2.63,48,48,0,0,0-8.11,4.33,71.71,71.71,0,0,0-7.17,5.86,70,70,0,0,0-5.85,7.17,49.5,49.5,0,0,0-4.34,8.1,48.76,48.76,0,0,0-2.64,8.88,45.88,45.88,0,0,0,0,18.48,48.09,48.09,0,0,0,2.64,8.86,49.78,49.78,0,0,0,4.34,8.13,68.82,68.82,0,0,0,5.85,7.16,67.56,67.56,0,0,0,7.17,5.84,48.12,48.12,0,0,0,8.11,4.35,49.09,49.09,0,0,0,8.86,2.63,45.93,45.93,0,0,0,18.49,0,54.2,54.2,0,0,0,8.87-2.63,48,48,0,0,0,8.1-4.35,67.66,67.66,0,0,0,7.18-5.84,70.13,70.13,0,0,0,5.85-7.16,49.78,49.78,0,0,0,4.34-8.13,48.06,48.06,0,0,0,2.63-8.86,45.41,45.41,0,0,0,0-18.48A48.73,48.73,0,0,0,583.58,714Z"/><path class="cls-1" d="M202.56,202.56c-186.07,186.07-186.07,488.81,0,674.88C295.6,970.48,417.8,1017,540,1017s244.4-46.52,337.44-139.56c186.07-186.07,186.07-488.81,0-674.88S388.63,16.48,202.56,202.56ZM803.28,803.28c-145.17,145.16-381.38,145.16-526.56,0s-145.17-381.39,0-526.56a372.76,372.76,0,0,1,526.56,0C948.45,421.89,948.45,658.11,803.28,803.28Z"/></svg>