<svg id="Ebene_1" data-name="Ebene 1" xmlns="http://www.w3.org/2000/svg" viewBox="0 0 1080 1080"><defs><style>.cls-1{fill:#f5f3f2;}</style></defs><path class="cls-1" d="M1025.79,342.26c-.59-5.25-1.13-10.61-1.65-15.8-1.15-11.34-2.33-23.06-4.11-34.58-7.53-48.69-23.63-90.68-47.85-124.83-25.44-35.85-60.58-64.11-104.43-84-34-15.39-71.26-23.87-114.07-25.94-136.38-6.6-272.11-4.73-398.47-1.73C294.14,56.86,248.91,66,208.56,85.19,132.47,121.31,84.26,183.48,65.29,270c-10.65,48.53-10.84,98.39-11,142.37-.38,98.08.35,195.24,1.56,310.95.63,60.18,10,107.43,29.49,148.69,34.9,73.92,94.47,121.67,177.05,141.93,37.58,9.22,76.25,10.89,115.87,11.91,3.8.09,7.59.49,11.6.91,1.9.19,3.79.39,5.69.56l290,0h.16q10.69-.58,21.38-1.13c15.37-.79,31.26-1.61,46.9-2.67,74.88-5.07,133.67-27.41,179.75-68.28,45-40,73.39-92.89,84.29-157.34,2.17-12.85,3.33-26,4.46-38.66.53-6.07,1.09-12.35,1.75-18.48.23-2.13.59-4.28,1-6.54.18-1.08.36-2.16.53-3.24l.08-.46V342.93ZM564.31,929c-7.79-.08-15.85-.15-23.79-.15h-5.86l0,1.34c-18.32-.45-36.85-.86-54.82-1.26-48.05-1.07-97.74-2.18-146.57-4-39.1-1.43-71.51-10.4-99.06-27.43-43.95-27.16-68.84-68-74-121.5-5.39-56.1-6.63-112.26-7.14-159.8-.83-76.78-.35-155.41,1.43-233.71.68-29.88,2.39-64.94,9.94-98.47,7.77-34.51,23.08-62.47,45.51-83.08,22.12-20.33,51.13-33.5,86.2-39.14,41.79-6.72,84-7.74,127.24-8.25q56-.66,113.82-.67c50.8,0,102.51.39,154.65,1.16,27.73.4,64.11,1.78,99.64,8.9,36.9,7.39,66.94,23.38,89.28,47.54s36,55.28,40.66,92.68c4.39,35,6.65,72.74,6.9,115.41.61,102.59.14,197.81-1.44,291.08-.59,35.19-3.9,64.56-10.1,89.79-17.25,70.11-64.62,112-137,121.14-39.71,5-80.77,6-120.47,6.89-14.08.33-28.63.67-42.94,1.19C599.09,929.28,581.41,929.11,564.31,929Z"/><path class="cls-1" d="M793.62,541.65c.74-66.74-24.73-129.9-71.72-177.86-47.72-48.71-111.72-75.87-180.21-76.51h-2.35c-66,0-128.31,25.61-175.75,72.27a253.31,253.31,0,0,0-76.13,180c-.5,66.88,25.29,130.13,72.61,178.11a253.3,253.3,0,0,0,180,75.9h1.61a249.17,249.17,0,0,0,176.69-73C766.12,673,792.87,609.49,793.62,541.65Zm-144.08,108a153.24,153.24,0,0,1-108.95,44.82h-.12a154.13,154.13,0,0,1-.16-308.26h.24a154.33,154.33,0,0,1,109,263.44Z"/><path class="cls-1" d="M796.69,347h.62a63.57,63.57,0,1,0,.13-127.13h-.14a63.33,63.33,0,0,0-63.42,63.19C733.76,318,761.94,346.72,796.69,347Z"/></svg>