<svg id="Ebene_1" data-name="Ebene 1" xmlns="http://www.w3.org/2000/svg" viewBox="0 0 1080 1080"><defs><style>.cls-1{fill:#252525;}</style></defs><path class="cls-1" d="M1077.35,110.25c2.56,18.45,2.65,37.52,2.65,56.17q0,375.78,0,751.55c0,28.08-.12,56.88-10,83.18a119.07,119.07,0,0,1-70.43,69.26c-25.21,9-52.59,9.11-79.36,9.13l-744.68.46c-46.45,0-102.29-.7-137.6-35.67C1.86,1008.62,0,954.19,0,906.7L.21,168.65C.22,123.26,2,73.21,32.75,39.85,66.85,2.91,123.35.32,173.63.3L912.26,0c35,0,71.38.31,102.57,16.08a112.8,112.8,0,0,1,49.92,50.54C1071.49,80.37,1075.25,95.1,1077.35,110.25ZM539.86,84.59q-203.43,0-406.87,0c-32.05,0-48.38,16.47-48.39,48.77q0,406.76,0,813.51c0,32,16.49,48.39,48.78,48.39H947.14c32,0,48.39-16.52,48.39-48.79q0-406.76,0-813.51c0-32-16.49-48.37-48.8-48.37Q743.3,84.57,539.86,84.59Z"/><path class="cls-1" d="M889.73,891.45H744.61v-11.8c0-78.69.14-157.38-.29-236.06a280.88,280.88,0,0,0-4.09-45C732,550,699,526.81,650.12,534.4c-40.12,6.23-63.63,29.09-71.59,71.88A291.57,291.57,0,0,0,574,657.56c-.47,73.77-.2,147.54-.2,221.31v12.3H431.08V416.11h142.3v62.83c6.74-8.69,11.35-15.54,16.86-21.58C619,425.81,655.86,411,697.51,407.86c36.41-2.74,72.37.66,106.19,15.92,42.54,19.2,65.69,54.37,75.2,98.18,6.07,28,10.11,56.89,10.52,85.46,1.35,92.72.62,185.47.67,278.2C890.09,887.32,889.89,889,889.73,891.45Z"/><path class="cls-1" d="M190.79,416H337.07V891.47H190.79Z"/><path class="cls-1" d="M352.35,264.44c-.29,47.47-39.46,86-87.09,85.73-47.48-.3-86-39.44-85.74-87.09.27-47.49,39.39-86,87.09-85.71C314.12,177.65,352.64,216.76,352.35,264.44Z"/></svg>