<svg id="Ebene_1" data-name="Ebene 1" xmlns="http://www.w3.org/2000/svg" viewBox="0 0 1080 1080"><defs><style>.cls-1{fill:#252525;}</style></defs><path class="cls-1" d="M540,106.38c-181.53,0-329.21,147.68-329.21,329.21,0,169.19,266.73,487.48,297.15,523.21a42.09,42.09,0,0,0,64.12,0c30.41-35.73,297.15-354,297.15-523.21C869.21,254.06,721.53,106.38,540,106.38Zm0,759C450.37,753.82,295,539,295,435.59c0-135.09,109.91-245,245-245s245,109.92,245,245C785,539,629.62,753.82,540,865.36Z"/><path class="cls-1" d="M540,289.13c-81.66,0-148.1,66.44-148.1,148.09s66.44,148.1,148.1,148.1,148.1-66.43,148.1-148.1S621.66,289.13,540,289.13Zm0,212a63.9,63.9,0,1,1,63.9-63.9A64,64,0,0,1,540,501.12Z"/></svg>