<svg id="Ebene_1" data-name="Ebene 1" xmlns="http://www.w3.org/2000/svg" viewBox="0 0 1080 1080"><defs><style>.cls-1{fill:#252525;}</style></defs><path class="cls-1" d="M9.17,187.56c-.66,1.85-1.13,3.37-1.48,4.76s-.61,2.8-.89,4.64a49.19,49.19,0,0,0-.55,5.4,15.78,15.78,0,0,1-.18,1.72,5.54,5.54,0,0,0-.07.57V875.37a50.9,50.9,0,0,0,50.84,50.84h966.32A50.9,50.9,0,0,0,1074,875.37V204.63a5.33,5.33,0,0,0-.07-.54,16.28,16.28,0,0,1-.18-1.73,49.19,49.19,0,0,0-.55-5.4c-.28-1.84-.56-3.32-.89-4.64s-.83-2.93-1.48-4.76a50.64,50.64,0,0,0-1.92-4.7c-.57-1.2-1.27-2.49-2.21-4.07a54.5,54.5,0,0,0-3.08-4.62,15.22,15.22,0,0,1-.95-1.42c-.09-.15-.18-.31-.28-.45s-.25-.23-.38-.35a16.94,16.94,0,0,1-1.23-1.21,50.7,50.7,0,0,0-3.89-3.86c-1.38-1.24-2.52-2.18-3.62-3s-2.51-1.75-4.19-2.76c-1.17-.69-2.71-1.59-4.3-2.33a48.3,48.3,0,0,0-4.5-1.82c-1.86-.67-3.4-1.15-4.83-1.51s-2.77-.6-4.56-.88a49.53,49.53,0,0,0-5.49-.55c-.68,0-1.25-.12-1.71-.18a4.86,4.86,0,0,0-.55-.07H56.84a5.54,5.54,0,0,0-.57.07,16.94,16.94,0,0,1-1.76.18,51.67,51.67,0,0,0-5.31.54c-1.87.29-3.37.58-4.7.91s-2.84.8-4.72,1.47-3.33,1.26-4.59,1.86c-1.55.73-3.07,1.61-4.22,2.29a48.71,48.71,0,0,0-4.26,2.8c-1.07.79-2.21,1.72-3.57,2.94a50,50,0,0,0-3.93,3.9A16.94,16.94,0,0,1,18,172c-.13.12-.27.24-.39.37s-.16.26-.26.41a17.06,17.06,0,0,1-.94,1.43,49,49,0,0,0-3.09,4.63c-.93,1.57-1.63,2.86-2.21,4C10.45,184.2,9.84,185.7,9.17,187.56Zm872.28,67.91L540,536.67,198.55,255.47ZM107.68,312.36l400,329.41a50.83,50.83,0,0,0,64.64,0l400-329.41V824.53H107.68Z"/></svg>