<svg id="Ebene_1" data-name="Ebene 1" xmlns="http://www.w3.org/2000/svg" viewBox="0 0 1080 1080"><defs><style>.cls-1{fill:#252525;}</style></defs><path class="cls-1" d="M748.08,268.74v-135c0-20.89-27.46-27.37-48.35-27.37H378.14c-20.89,0-29.59,6.48-29.59,27.37v135l-71.38,152L246.58,485.9c-8.35,17.79-17.39,34.47-26.75,51.34-1.94,3.5-2.24,7.7-1.88,11.69,1.14,12.93,8.49,24.46,16.66,34.54C288.4,649.81,338.2,720,389.66,788.23L501.85,937l2.06,2.74c2,19,21.49,33.89,41,33.89,20.89,0,41.42-16.93,41.42-37.82v-3.58l92.18-123.75C727.05,743.34,774.39,677.11,824.16,613c8.71-11.23,16.83-22.88,25-34.56a81.33,81.33,0,0,0,7.51-12.19,41.29,41.29,0,0,0,.58-33c1.66-.48-78.65-194.13-85.68-210.33Q759.82,295.8,748.08,268.74ZM424.65,182.48H672v66.59H424.65ZM586.36,806.6V542.51a38.05,38.05,0,0,0-76.1,0V813.57L302.48,545.43l97.93-220.26H677.46L782.14,545.43Z"/></svg>