<svg id="Ebene_1" data-name="Ebene 1" xmlns="http://www.w3.org/2000/svg" viewBox="0 0 615 615"><defs><style>.cls-1{fill:#22aaa6;}.cls-2,.cls-4{fill:#ffe239;}.cls-2,.cls-3{fill-rule:evenodd;}.cls-3,.cls-5{fill:#231f20;}</style></defs><rect class="cls-1" width="615" height="615"/><path class="cls-2" d="M87.14,575.16a11.34,11.34,0,0,0,2,.59A2.36,2.36,0,0,0,92,572.67c-.76-1.94-1.82-3.76-2.7-5.54-.47-.43-.83-.81-1.23-1.15-3.32-2.8-7.19-4.88-10.21-8.1-1.48-1.59-3.94-1.08-5.61.63a4.63,4.63,0,0,0,0,6.55A42.33,42.33,0,0,0,87.14,575.16Z"/><path class="cls-2" d="M222.54,589.31a8.5,8.5,0,0,0,3.37,1.15,2.58,2.58,0,0,0,2.16-.71,4,4,0,0,0,.32-2.85,9.18,9.18,0,0,0-1.82-2.49,53.86,53.86,0,0,0-5.66-6,34.22,34.22,0,0,0-5.61-3.66,3.94,3.94,0,0,0-4.43,0c-1.16.85-1.34,3.14-.26,4.77a16.58,16.58,0,0,0,3.36,3.9C216.71,585.53,219.62,587.45,222.54,589.31Z"/><path class="cls-2" d="M83.11,444.06c2.23,1.86,4.5,3.87,7.68,4.1,1.62.12,2.24-.3,2.3-2a5.4,5.4,0,0,0-.87-3.93c-3.24-4.18-7.47-7.18-11.77-10.09-1.64-1.1-2.85-.69-4.07.82a2.53,2.53,0,0,0,.19,3.7c.47.51.91,1.05,1.36,1.58l-.11.1A58.39,58.39,0,0,0,83.11,444.06Z"/><path class="cls-2" d="M233.11,557.42c3.45,2.67,6.85,5.42,10.38,8a12.66,12.66,0,0,0,3.82,1.57,2.24,2.24,0,0,0,2.62-1.22,1.93,1.93,0,0,0-.31-2.79c-.27-.23-5.37-5.56-8.12-7.33a22.53,22.53,0,0,0-6.8-2.44,3.38,3.38,0,0,0-2.61,1.14c-.82.93-.15,1.95.62,2.75A4.47,4.47,0,0,0,233.11,557.42Z"/><path class="cls-2" d="M136.41,562.5c.28-.72.68-1.24.59-1.65-.28-1.31-.39-2.92-1.22-3.8a26.47,26.47,0,0,0-11.41-7.12,5.82,5.82,0,0,0-3.07,0,2.72,2.72,0,0,0-1.74,1.58,2.66,2.66,0,0,0,.81,2.22,92.57,92.57,0,0,0,14.1,8.66A5.07,5.07,0,0,0,136.41,562.5Z"/><path class="cls-2" d="M196.39,603.9a3.36,3.36,0,0,0,1,.2,1.4,1.4,0,0,0,1.56-2c-.63-1.24-1.41-2.4-2.74-4.61a65.68,65.68,0,0,0-6-4.8c-2.57-1.69-4.47-1.64-5.12-.29-.92,1.93.45,3.35,1.52,4.61C189.3,600.14,192.8,602.1,196.39,603.9Z"/><path class="cls-3" d="M210.88,509.63a31.65,31.65,0,0,0,4.34,2.87c2.84,1.59,4.82.44,4.85-2.73a13.32,13.32,0,0,1,0-3.09c.6-2.29-.45-3.57-2.2-4.77-3.15-2.16-6.19-4.48-9.29-6.7a9.4,9.4,0,0,0-2.28-1.25,5,5,0,0,0-4.75,1.36,4.44,4.44,0,0,0-.36,4.88c.55.88,1.26,1.67,1.9,2.5l-.22.27C205.53,505.19,208.16,507.47,210.88,509.63Z"/><path class="cls-3" d="M148.48,499.09c4.05,2.66,8.1,5.31,12.22,7.85a5.78,5.78,0,0,0,3,.77,4.32,4.32,0,0,0,2.76-.93,2.51,2.51,0,0,0,.21-3.36,14.78,14.78,0,0,0-3.36-3.15,16,16,0,0,1-3.69-3.38,33,33,0,0,0-7.17-5.93c-2.08-1.39-4.86-.52-6.43,1.55-1.06,1.4-.72,3.07,1.1,5A7.88,7.88,0,0,0,148.48,499.09Z"/><path class="cls-3" d="M302,612.21a29.47,29.47,0,0,0,14.72,9.89c.88.25,1.29-.1,1.43-.92.48-2.8.57-5.46-1.87-7.57-1.7-1.46-3.62-2.84-4.83-4.67-1.8-2.74-4.46-3.09-7.19-3.34a3.61,3.61,0,0,0-2.62,1.15C300,608.58,300.16,609.54,302,612.21Z"/><path class="cls-3" d="M326.85,563.35a2.54,2.54,0,0,0,1.75-4.56c-1.6-1.57-3.27-3.08-4.91-4.61a25.75,25.75,0,0,0-9.78-8.41c-1.66-.8-3.54.44-3.08,2.11.65,2.32,1.22,5,2.77,6.67A33,33,0,0,0,326.85,563.35Z"/><path class="cls-3" d="M4.83,392.25a5.25,5.25,0,0,0,2.75,1.34A3.83,3.83,0,0,0,12,391.74c.73-1.32.5-2.7-1-4.19-3.47-3.4-7-6.69-10.54-10.06-.58-.57-1.09-.8-1.79-.34s-1.15.79-1.35.93l-1.19.92c-2.68,2.15-2.74,2.56-.46,4.79C-1.35,386.69,2.31,388.83,4.83,392.25Z"/><path class="cls-3" d="M375.68,562.58c-1.75-1-4.48-.49-4.82.43a3.74,3.74,0,0,0,1.23,4.23,2.51,2.51,0,0,1,.32.41,10.83,10.83,0,0,0,2.31,2.66,91.56,91.56,0,0,0,7.59,5.46,7.5,7.5,0,0,0,4,.74,2.36,2.36,0,0,0,1.74-3.86,23.37,23.37,0,0,0-3.85-4.26A73,73,0,0,0,375.68,562.58Z"/><path class="cls-3" d="M175.51,553.22a2.88,2.88,0,0,0-2.43,4.43c.7,1.18,1.53,2.3,2.65,4,2.15,1.21,4.78,2.79,7.5,4.19a2.35,2.35,0,0,0,3.23-.73,2.79,2.79,0,0,0,.08-3.4c-2-2.82-3.92-5.8-7.14-7.4A9.41,9.41,0,0,0,175.51,553.22Z"/><path class="cls-3" d="M22.05,530.83a7.89,7.89,0,0,0,7.46.74,2.36,2.36,0,0,0,1.11-1c.47-1-.52-4.06-1.43-4.65-1.57-1-3.16-2-4.74-3-3.1-2-7-4.36-9.93-2.08-.41.32-.84.61-1.23,1-1.61,1.41-1.57,1.9.17,3.1S20.3,529.78,22.05,530.83Z"/><path class="cls-3" d="M249.08,592.64c-.27.69.43,1.8.76,2.69a3.1,3.1,0,0,0,.67.79l.08-.06a17.75,17.75,0,0,0,1.6,2,17.46,17.46,0,0,0,7.5,4.45,2.09,2.09,0,0,0,1.81-.51,2,2,0,0,0,.08-1.88,46.62,46.62,0,0,0-3.47-4.48,12,12,0,0,0-5.88-4.07C251,591.25,249.57,591.39,249.08,592.64Z"/><path class="cls-3" d="M92.34,513.08c1.23-.09,1.72-.83,1.35-2.13-.19-.66-.61-1.25-.82-1.9a11.09,11.09,0,0,0-1.49-3.22h0a2,2,0,0,0-.19-.22c-1.74-2-6.25-7.25-10.05-5.78s-2.55,2.73-2.3,3.46,2.07,5.45,6.11,8A11.6,11.6,0,0,0,92.34,513.08Z"/><path class="cls-3" d="M20.74,579.26a7.92,7.92,0,0,0,2.14,1.18,9,9,0,0,0,3.59.15,2,2,0,0,0,1.25-1.36,6.43,6.43,0,0,0-1-4.15h0l-.11-.15h0l-.12-.14c-1.65-2-7.93-7.81-10.9-6.6-3.15,1.28-2.64,2.38-2.36,2.74S17.15,577.22,20.74,579.26Z"/><path class="cls-4" d="M267.8,270.76l.61.08a12,12,0,0,1,1.64.26,5,5,0,0,1,3.54,2.94,4.49,4.49,0,0,1,.43,1.9,3.94,3.94,0,0,1-.86,2.42q-5.62,7.33-12.44,7.51h-.26q-4.05,0-5.7-3.11a5.24,5.24,0,0,1-.6-2.33,5.87,5.87,0,0,1,1.47-3.72q4.74-6,11.48-5.95Z"/><path class="cls-4" d="M479.62,322.62v-.77q0-8.78,6.49-17.51a12.78,12.78,0,0,1,6.13-4.77q5.47-1.89,12.67-4.07a9,9,0,0,1,2.42-.3h.47l1.48.12,1.47.18a39.61,39.61,0,0,1,7.43,1.83l3.6,1.29,3.59,1.24a15.63,15.63,0,0,1,9.85,9.08l.89,2.3.94,2.3a20,20,0,0,1,1.06,4.78q.06.89.06,1.71,0,12.38-11.38,21.16l-1.47,1.13-1.42,1.12a35.56,35.56,0,0,0-2.83,2.35,16.16,16.16,0,0,1-7.66,4.25,36.3,36.3,0,0,1-8.73,1.12q-.76,0-1.53-.06-6.31-.36-12.09-6.07a90.48,90.48,0,0,1-8.73-10.09,13.59,13.59,0,0,1-2.12-5.42,21.06,21.06,0,0,1-.41-3.42l-.06-1.71Z"/><path class="cls-4" d="M415.86,329l.54-9.14c.19-3.62.41-6.66.64-9.14.12-1.49.18-3.32.18-5.48q0-3.72-.24-8.79-.17-3.36-.47-7.72c-.08-1-.17-2.1-.29-3.48l-.12-1.59-.06-1.48c-.12-1.41-.18-2.79-.18-4.12,0-1.1,0-2.19.12-3.25a10.06,10.06,0,0,1,4.25-7.6,12.22,12.22,0,0,1,7.72-2.83h.47l1.48.17,1.41.18c3.27.43,5,2.24,5.31,5.42.08,1.11.21,2.78.41,5l.18,1.53.12,1.53.29,3.19q.76,8.13.95,11.32v1.47c0,1.77.23,2.83.58,3.19a3,3,0,0,0,2.07.47q.58,0,1.35-.06a38.75,38.75,0,0,1,3.9-.18c1.65,0,3.48.08,5.48.24a19,19,0,0,1,14.33,7.84,19.37,19.37,0,0,1,4.18,11.79,18.7,18.7,0,0,1-.11,2.12q-.77,7.2-6.84,14a20.94,20.94,0,0,1-7.43,5.6,24.23,24.23,0,0,0-2.18,1.12l-2.13,1.3a25.58,25.58,0,0,1-4.36,2.24,64.2,64.2,0,0,0-6.31,2.65L438,348l-3,1.48A14.17,14.17,0,0,1,428.9,351a12.54,12.54,0,0,1-6.43-1.83A12.8,12.8,0,0,1,416,338.36c-.08-1.25-.12-2.81-.12-4.65l.06-2.36V329Z"/><path class="cls-4" d="M404.47,306.58a35.23,35.23,0,0,1,.18,3.78,97.54,97.54,0,0,1-1.36,14.44l-.29,1.71-.36,1.71a24.31,24.31,0,0,0-.47,3.36,24.29,24.29,0,0,1-1.35,6.31c-.28.83-.65,1.81-1.12,2.95l-1.3,3a15.31,15.31,0,0,1-2.54,3.6,5.33,5.33,0,0,1-4,2.06,6.3,6.3,0,0,1-3-.88,8,8,0,0,0-4-1.18,6.83,6.83,0,0,0-3.9,1.29,9.58,9.58,0,0,1-3.95,1.42,15.45,15.45,0,0,1-2.06.12l-2.12.06h-.53a69.29,69.29,0,0,1-8.79-.71q-9.07-1.19-11.73-9.2l-.59-1.77-.65-1.71c-.59-1.49-1-2.63-1.24-3.42a23.1,23.1,0,0,1-1.3-7.07v-.24a18.3,18.3,0,0,1,3.31-10.67,9.06,9.06,0,0,1,3.12-3.07q1.53-.71,4.07-2.06l2-1.06,2.07-1.07A38.46,38.46,0,0,1,371.1,305c1.18-.27,2.65-.53,4.42-.77l2.18-.29,2.18-.35a1.24,1.24,0,0,0,1.12-.77,1.12,1.12,0,0,0,.06-.35,1.71,1.71,0,0,0-.41-1,7.76,7.76,0,0,0-6.37-3.12,7.42,7.42,0,0,0-.94.06c-1.46.12-2.87.17-4.25.17a42.65,42.65,0,0,1-5.13-.29,4.63,4.63,0,0,1-3.95-3.42,6.54,6.54,0,0,1-.35-2,4.77,4.77,0,0,1,1.36-3.31,24.54,24.54,0,0,1,5.42-4.71c2.16-1.1,5.37-1.71,9.61-1.83a11.27,11.27,0,0,1,2.89-.36,25.81,25.81,0,0,1,9.38,2.19Q402.53,290.43,404.47,306.58Z"/><path class="cls-4" d="M337.69,306.41c.12,1.92.18,3.87.18,5.83a104.07,104.07,0,0,1-.65,11.44l-.41,4.07-.42,4.07c-.31,3.42-.59,6.11-.82,8.08a18.32,18.32,0,0,1-3.07,7.25,8,8,0,0,1-7.19,3.83,14.53,14.53,0,0,1-1.83-.12,11.37,11.37,0,0,1-4.66-1.71,7.49,7.49,0,0,1-3.06-3.12,17,17,0,0,1-2.13-7.61,8.39,8.39,0,0,1,.12-1.41l.36-2.83.41-2.83c.31-2.2.61-4.07.88-5.6a57.15,57.15,0,0,0,1.24-11.15,31.78,31.78,0,0,0-.47-5.6l-.12-.59-.06-.65c-.08-.51-.15-.92-.23-1.24a1.87,1.87,0,0,0-1.54-1.59h-.05a2.85,2.85,0,0,0-1.6.89l-.88.88-.83.83-.35.35-6.25,7.61.24,4.65.35,4.72.65,7.84.65,7.91.06.47v.53a2.32,2.32,0,0,1-.18.94c-1.06,2.6-2,4.7-2.83,6.31a5.94,5.94,0,0,1-5.49,3.6h-.53a45.14,45.14,0,0,1-7.78-1.36q-5.72-1.47-6-7.49l-.24-7.19-.24-7.14-.11-7.66c0-3.11-.12-5.66-.24-7.67,0-.78-.06-1.53-.06-2.24a24.05,24.05,0,0,1,1-7.54q3-8.79,11.44-10.38a10.46,10.46,0,0,1,1.83-.18,5.27,5.27,0,0,1,4.07,1.59,2,2,0,0,0,1.47.83,2.23,2.23,0,0,0,1.54-.77,18.63,18.63,0,0,1,8.31-4.18,29.8,29.8,0,0,1,7.49-.95,35.58,35.58,0,0,1,8.67,1.12,9.84,9.84,0,0,1,5.42,4.13A19.65,19.65,0,0,1,337.69,306.41Z"/><path class="cls-4" d="M273.68,321c0,.87-.1,2.1-.18,3.72l-.06,1.94-.11,2.06q-.12,3.72-.12,6.61v1.89a12.14,12.14,0,0,1-1.89,6.36,24.35,24.35,0,0,1-1.89,2.66l-1.06,1.23-1,1.3a2.44,2.44,0,0,1-1.24.65,7.52,7.52,0,0,1-1.47.24h-1a20.64,20.64,0,0,1-8.19-1.77q-4.12-1.77-4.13-5.84v-.24q.12-5.13.53-8.37a112.19,112.19,0,0,0,1-13.15c0-.74,0-1.45-.06-2.12s-.06-1.3-.06-2c0-1.73.08-3.62.23-5.66l.3-3.78.35-3.83a5.31,5.31,0,0,1,2-3.77,17.78,17.78,0,0,1,11-4.13,15,15,0,0,1,1.89.12,6,6,0,0,1,3.72,1.76,5.47,5.47,0,0,1,1.41,3.84q.06,3.88.06,9.73Z"/><path class="cls-4" d="M197.35,318.67v-9.9a17,17,0,0,0-3.42-10.15,5.72,5.72,0,0,1-1.42-2.89v-.11c0-.59.67-1.58,1.89-2.95l1-1.18.95-1.24a6.33,6.33,0,0,1,2.59-1.89,2.12,2.12,0,0,0,.83-.76,4.58,4.58,0,0,0,.53-1.12,35.89,35.89,0,0,0,1.06-5.31q.82-5.71,6.72-7a48,48,0,0,1,8.84-.65,5,5,0,0,1,4.13,1.66,4.92,4.92,0,0,1,1.06,3.24,7.91,7.91,0,0,1-.11,1.24l-.12.53a8.41,8.41,0,0,1-.36,1.47l-.23.71-.24.77a3.48,3.48,0,0,0-.18,1,1.79,1.79,0,0,0,.71,1.53,4.3,4.3,0,0,0,2.6.71h.76l.83-.06q.94,0,1.53.06h1.95c.82,0,1.49,0,2,.06a9.48,9.48,0,0,1,3.25.94,3.19,3.19,0,0,1,2.06,2.83,4.88,4.88,0,0,1-.53,2.06q-4.78,9.85-13.68,9.85h-.77l-.53-.06a3,3,0,0,0-.94.12,4.33,4.33,0,0,0-1.06.59,1.6,1.6,0,0,0-.59.83,53.83,53.83,0,0,0-.77,8.84,38.15,38.15,0,0,0,3.24,15.86l.12.24.12.23c1.37,2.13,2.4,3.19,3.07,3.19h0c.63,0,1.58-1,2.83-3l3.07-5.07q1.83-3,4.54-3a5.69,5.69,0,0,1,1.59.24,6.67,6.67,0,0,1,1.89,1.06l.88.71.95.59A2.14,2.14,0,0,1,241.1,325l.06.94.12.95A18.48,18.48,0,0,1,238,341.55a23.38,23.38,0,0,1-11.43,8.84,17.72,17.72,0,0,1-6.25,1.12,21.77,21.77,0,0,1-7.61-1.47,20.85,20.85,0,0,1-11-9,28.76,28.76,0,0,1-4.24-15v-7.37Z"/><path class="cls-4" d="M184.52,306.41c.12,1.92.17,3.87.17,5.83a104,104,0,0,1-.64,11.44l-.42,4.07-.41,4.07c-.32,3.42-.59,6.11-.83,8.08a18.13,18.13,0,0,1-3.06,7.25,8,8,0,0,1-7.19,3.83,14.53,14.53,0,0,1-1.83-.12,11.31,11.31,0,0,1-4.66-1.71,7.46,7.46,0,0,1-3.07-3.12,17.15,17.15,0,0,1-2.12-7.61,8.39,8.39,0,0,1,.12-1.41l.35-2.83.41-2.83c.32-2.2.61-4.07.89-5.6a57.93,57.93,0,0,0,1.24-11.15A31.78,31.78,0,0,0,163,309l-.12-.59-.06-.65c-.08-.51-.16-.92-.24-1.24a1.85,1.85,0,0,0-1.53-1.59H161a2.86,2.86,0,0,0-1.59.89l-.89.88-.82.83-.35.35-6.25,7.61.23,4.65.35,4.72.65,7.84.65,7.91.06.47v.53a2.32,2.32,0,0,1-.18.94q-1.59,3.9-2.83,6.31a5.92,5.92,0,0,1-5.48,3.6H144a45,45,0,0,1-7.78-1.36q-5.73-1.47-6-7.49l-.23-7.19-.24-7.14-.12-7.66c0-3.11-.12-5.66-.23-7.67,0-.78-.06-1.53-.06-2.24a23.76,23.76,0,0,1,1-7.54q3-8.79,11.44-10.38a10.46,10.46,0,0,1,1.83-.18,5.29,5.29,0,0,1,4.07,1.59,2,2,0,0,0,1.47.83,2.21,2.21,0,0,0,1.53-.77,18.73,18.73,0,0,1,8.32-4.18,29.73,29.73,0,0,1,7.48-.95,35.58,35.58,0,0,1,8.67,1.12,9.86,9.86,0,0,1,5.43,4.13A19.72,19.72,0,0,1,184.52,306.41Z"/><path class="cls-4" d="M93.88,311.3h-.12c-.79,0-1.26.47-1.42,1.42a23.32,23.32,0,0,0-.23,3.36q0,7.79,4.83,16a6.43,6.43,0,0,0,.94,1.17c.24.24.59.58,1.07,1,1.45,1.26,2.43,1.88,2.94,1.88a9.23,9.23,0,0,0,3.31-1.59l1.41-.94,1.42-.94a8.18,8.18,0,0,1,3.36-1.07h.47a6.92,6.92,0,0,1,4,1.12,5.38,5.38,0,0,1,2.42,3.66,15.29,15.29,0,0,1,.35,3.12q0,5.91-5.48,9.91a19.07,19.07,0,0,1-11.38,4,20.78,20.78,0,0,1-8.26-1.83,40,40,0,0,1-7.9-4.66Q84,345.74,82,344.08l-3.47-2.94a15.08,15.08,0,0,1-4.9-9A93.14,93.14,0,0,1,72,315.9a56.34,56.34,0,0,1,.65-8.79A27.23,27.23,0,0,1,84.56,288a28.61,28.61,0,0,1,16.86-5.31,40,40,0,0,1,12.38,2.13q6.2,1.94,6.49,7.9l.18,3.06.23,3.07q.18,3,.18,5.13v1.06a6.62,6.62,0,0,1-1.24,4.19,7.52,7.52,0,0,1-4.07,1.71,18.47,18.47,0,0,1-3.18.35l-1.65.12-1.59.06h-6.84Q96.29,311.48,93.88,311.3Z"/><path class="cls-5" d="M98.71,313.72h-.12c-.79,0-1.26.47-1.42,1.41a23.32,23.32,0,0,0-.23,3.36q0,7.78,4.83,16a6.15,6.15,0,0,0,1,1.18c.23.24.58.57,1.06,1q2.18,1.89,2.94,1.89A9.23,9.23,0,0,0,110,337l1.41-.95,1.42-.94a8.16,8.16,0,0,1,3.36-1.06h.47a6.85,6.85,0,0,1,4,1.12,5.33,5.33,0,0,1,2.42,3.65,15.46,15.46,0,0,1,.35,3.13q0,5.89-5.48,9.91a19.07,19.07,0,0,1-11.38,4A20.78,20.78,0,0,1,98.29,354a40.45,40.45,0,0,1-7.9-4.66q-1.59-1.18-3.59-2.83l-3.48-2.95a15.06,15.06,0,0,1-4.9-9,93.24,93.24,0,0,1-1.59-16.28,56.12,56.12,0,0,1,.65-8.78,27.19,27.19,0,0,1,11.91-19.1,28.61,28.61,0,0,1,16.86-5.31,40.41,40.41,0,0,1,12.39,2.12q6.18,2,6.48,7.9l.18,3.07.23,3.06q.18,3,.18,5.13v1.07a6.59,6.59,0,0,1-1.24,4.18,7.34,7.34,0,0,1-4.07,1.71,17.46,17.46,0,0,1-3.18.36l-1.65.11-1.59.06h-6.84Q101.13,313.89,98.71,313.72ZM93,290.6l-.18-.12-.06-.05h-.06l-.29.23-.24.3-.94,1.12-.71.06a1.64,1.64,0,0,0-.71.11,21.76,21.76,0,0,0-8.37,9.44,38.84,38.84,0,0,0-3.13,15.5q0,2.71.3,5.78c.16,1.38.37,3.09.65,5.13l.76,5.13a15.11,15.11,0,0,0,6.14,10.32L89,345.73l2.89,2.13a40.55,40.55,0,0,0,6.07,3.77,18.53,18.53,0,0,0,19.22-1.36,10.38,10.38,0,0,0,4.6-7.31v-.06a.89.89,0,0,0-.12-.35l-.12-.18-.11-.23a.62.62,0,0,0-.18.05l-.3.12-1.29,1.12c-.51.47-1,.85-1.3,1.12a16.15,16.15,0,0,1-9.43,3.31,14.38,14.38,0,0,1-3.19-.36A30.82,30.82,0,0,1,89.33,338a19.86,19.86,0,0,1-3.77-5.72,34.52,34.52,0,0,1-2.77-13.62,40,40,0,0,1,1.35-10.08,53.24,53.24,0,0,1,7-16.57l.82-1.18Zm13.14,9.55,0-.35v-.47a13.86,13.86,0,0,0-.24-2,3.29,3.29,0,0,0-.47-1.18,1.43,1.43,0,0,0-.77-.76h-.18a2.46,2.46,0,0,0-1.76,1.12q-1.3,2.83-3.31,8.19a.16.16,0,0,0,0,.12.8.8,0,0,0,.23.47.93.93,0,0,0,.47.42,19.93,19.93,0,0,0,3.36.53h.3a2.81,2.81,0,0,0,1.83-.47,3.17,3.17,0,0,0,.64-2.07Zm3.84-6.48a4.89,4.89,0,0,0-1.54-.3,2,2,0,0,0-1.47.53,1,1,0,0,0-.35.77l.41,4.89.35,4.84a1.54,1.54,0,0,0,1.48,1.53,6.47,6.47,0,0,0,1.18.12,2.51,2.51,0,0,0,1.47-.35,3.76,3.76,0,0,0,.94-2.42c0-.24,0-.69.06-1.36V298.5a17.53,17.53,0,0,0-.17-2.95C112.13,294.73,111.34,294.1,110,293.67Z"/><path class="cls-5" d="M189.35,308.82c.12,1.93.17,3.87.17,5.84a104.16,104.16,0,0,1-.64,11.44l-.42,4.07-.41,4.06c-.31,3.42-.59,6.12-.83,8.08a18.16,18.16,0,0,1-3.06,7.26A8,8,0,0,1,177,353.4a14.53,14.53,0,0,1-1.83-.12,11.6,11.6,0,0,1-4.66-1.71,7.48,7.48,0,0,1-3.07-3.13,17.11,17.11,0,0,1-2.12-7.6,8.6,8.6,0,0,1,.12-1.42l.35-2.83.42-2.83q.47-3.3.88-5.6A57.05,57.05,0,0,0,168.3,317a31.7,31.7,0,0,0-.47-5.6l-.12-.59-.06-.65c-.08-.51-.16-.93-.24-1.24a1.85,1.85,0,0,0-1.53-1.59h-.06a2.83,2.83,0,0,0-1.59.88l-.89.89-.82.82-.35.36-6.25,7.6.23,4.66.36,4.72.64,7.84.65,7.9.06.47V344a2.37,2.37,0,0,1-.18,1q-1.59,3.88-2.83,6.31a5.93,5.93,0,0,1-5.48,3.59h-.53a45.89,45.89,0,0,1-7.78-1.35q-5.73-1.49-6-7.49l-.23-7.2-.24-7.13-.12-7.67c0-3.1-.11-5.66-.23-7.66,0-.79-.06-1.53-.06-2.24a23.83,23.83,0,0,1,1-7.55q3-8.79,11.44-10.38a11.43,11.43,0,0,1,1.83-.17,5.29,5.29,0,0,1,4.07,1.59,2,2,0,0,0,1.47.82,2.2,2.2,0,0,0,1.53-.76,18.74,18.74,0,0,1,8.32-4.19,29.72,29.72,0,0,1,7.48-.94,35,35,0,0,1,8.67,1.12,9.81,9.81,0,0,1,5.43,4.13A19.69,19.69,0,0,1,189.35,308.82Zm-36.44,42a.93.93,0,0,0,.06-.29v-.12a1.27,1.27,0,0,0-.89-.65c-3.57-.71-5.62-1.24-6.13-1.59q-1.77-1.35-2.65-7.25l-.18-1.48-.18-1.47-2.06-24.12.18-4.71c0-1.81.06-3.37.06-4.66a3.93,3.93,0,0,1,.11-.83l.12-.41.06-.41v-.3c0-.47-.27-.76-.82-.88h-.12c-.24,0-.57.23-1,.7l-.64.77-.3.36-.23.35a10.69,10.69,0,0,0-1.24,2.71,27.78,27.78,0,0,0-1.24,8.49c0,.71,0,1.44.06,2.18.12,1.58.21,3.46.29,5.66l.12,5.66.53,17.22a5.42,5.42,0,0,0,4.54,5.66c2,.47,4.31.93,6.78,1.36a3.64,3.64,0,0,0,.89.12,5,5,0,0,0,3.59-1.65A1.6,1.6,0,0,0,152.91,350.86Zm9-52.83a6.36,6.36,0,0,0,1-1.18l.42-.59.47-.59-.71.18-.71.18a6.78,6.78,0,0,0-1.29.47c-.67.35-1.4.75-2.19,1.18L156.8,299a3.78,3.78,0,0,0-2.18,3.25,4.5,4.5,0,0,0,.53,2l-.06.06.12.12-.06-.18,3.42-3.06Zm21.64,48.7.06-.35.12-.35L183,346a1.76,1.76,0,0,0-.41-.06h-.18a17.71,17.71,0,0,1-2.42.18,6.32,6.32,0,0,1-3.83-1c-1.3-1-2.06-2.86-2.3-5.66a17.69,17.69,0,0,1-.12-2l.24-8.9.23-8.91V319c0-1.81-.15-4.54-.47-8.19a48.76,48.76,0,0,0-.88-7.37,1.66,1.66,0,0,0-.59-.83,1.45,1.45,0,0,0-.65-.35h-.06a14.93,14.93,0,0,0-3.54,2.41.72.72,0,0,0-.17.53,1.7,1.7,0,0,0,.05.42l.12.65.12.64.47,2.19.53,2.12a21.14,21.14,0,0,1,.59,4.36v.77c0,1.49-.1,3.2-.29,5.13l-.3,2.95-.41,2.95c-.12,1.25-.37,3-.77,5.36l-.41,2.71-.35,2.72a19.16,19.16,0,0,0-.18,2.53,11.69,11.69,0,0,0,1.06,5.19,8.55,8.55,0,0,0,7.19,5.31,5.79,5.79,0,0,0,.83.06,8.5,8.5,0,0,0,7.13-3.9A3.5,3.5,0,0,0,183.51,346.73Z"/><path class="cls-5" d="M202.18,321.09v-9.91A17,17,0,0,0,198.76,301a5.76,5.76,0,0,1-1.42-2.89V298c0-.59.67-1.57,1.89-2.95l1-1.18,1-1.23a6.15,6.15,0,0,1,2.59-1.89,2.09,2.09,0,0,0,.83-.77,4.26,4.26,0,0,0,.53-1.12,36,36,0,0,0,1.06-5.3q.83-5.73,6.72-7a48,48,0,0,1,8.84-.65,5,5,0,0,1,4.13,1.65,5,5,0,0,1,1.06,3.24,7.71,7.71,0,0,1-.11,1.24l-.12.53a8.27,8.27,0,0,1-.36,1.48l-.23.7-.24.77a3.48,3.48,0,0,0-.17,1,1.82,1.82,0,0,0,.7,1.54,4.3,4.3,0,0,0,2.6.7h.76l.83-.06q.94,0,1.53.06h2c.82,0,1.49,0,2,.06a9.48,9.48,0,0,1,3.25.95,3.18,3.18,0,0,1,2.06,2.83,4.91,4.91,0,0,1-.53,2.06q-4.79,9.84-13.68,9.85h-.77l-.53-.06a3,3,0,0,0-.94.12,4.5,4.5,0,0,0-1.06.58,1.6,1.6,0,0,0-.59.83,53.93,53.93,0,0,0-.77,8.84,38.23,38.23,0,0,0,3.24,15.87l.12.23.12.24q2.07,3.18,3.07,3.18h.05c.63,0,1.58-1,2.84-3l3.06-5.07q1.83-3,4.54-3a6,6,0,0,1,1.59.23,6.94,6.94,0,0,1,1.89,1.06l.88.71,1,.59a2.16,2.16,0,0,1,1.06,1.53l.06.95.12.94a19.42,19.42,0,0,1,.35,3.6,19.13,19.13,0,0,1-3.66,11,23.4,23.4,0,0,1-11.43,8.85,17.94,17.94,0,0,1-6.25,1.12,21.56,21.56,0,0,1-7.61-1.48,20.76,20.76,0,0,1-11-9,28.75,28.75,0,0,1-4.24-15v-7.37Zm39.62,17.8-2,1.77a13.3,13.3,0,0,1-9.44,3.72h-.53a18.43,18.43,0,0,1-10.2-3.36,38.09,38.09,0,0,1-7.66-7.55l-.65-2-.77-1.88c-.59-1.62-1-2.89-1.35-3.84a22.81,22.81,0,0,1-1.24-7,9.08,9.08,0,0,1,.06-1l.47-7.43.59-7.37.06-1,.11-1v-.3a3,3,0,0,0-.29-1.47c-.12-.27-.55-.47-1.3-.59l-.94-.18a4.91,4.91,0,0,1-.83-.23c-.27-.12-.65-.32-1.12-.59l-.53-.3-.53-.29a9.06,9.06,0,0,0-2.36-.65h-.23a1.72,1.72,0,0,0-1.48.77,1.67,1.67,0,0,0-.35,1,2,2,0,0,0,.18.82,8.59,8.59,0,0,0,1,1.71,16.83,16.83,0,0,1,2.95,9.32l.11,3.72.12,3.71c0,2,.06,3.71.06,5.25V326q0,10.08,4.54,17.16,3.54,5.6,11.15,7.78a21.89,21.89,0,0,0,6.13.94,14.93,14.93,0,0,0,7.31-1.82A28.14,28.14,0,0,0,240,345a13.56,13.56,0,0,0,3.72-8l.18-.06H244l.12-.12v-.12l-.35.41Zm-32.72-48.46h.17a2.27,2.27,0,0,0,2.3-1.95c.2-.83.51-1.93.95-3.3l.53-1.59.47-1.66c.08-.19.22-.49.41-.88l.24-.47.18-.41a2.39,2.39,0,0,0,.11-.65,1.06,1.06,0,0,0-.59-.95,1.25,1.25,0,0,0-.53-.11,4.16,4.16,0,0,0-1.18.23,8.23,8.23,0,0,0-1.82.89,4.92,4.92,0,0,0-2.07,2.59c-.23.87-.47,2-.71,3.3l-.29,1.71-.35,1.65a2,2,0,0,0-.06.47.89.89,0,0,0,.47.89A4.37,4.37,0,0,0,209.08,290.43Zm20.58,6.66-1.3-.12c-.47,0-.91-.06-1.3-.06a10,10,0,0,0-1.12.06,1.8,1.8,0,0,0-.94.35,1,1,0,0,0-.53.65,16.72,16.72,0,0,0-.36,3.84c0,.15.12.33.36.53a1,1,0,0,0,.59.35c.66,0,1.31.06,1.94.06q6.9,0,9.85-4.25a1.88,1.88,0,0,0,.29-.65l.06-.41.12-.35-.82-.18a3.45,3.45,0,0,0-.83-.12l-2.42.18-1.18.06-1.06.12Z"/><path class="cls-5" d="M277.33,323.39c0,.86-.09,2.1-.17,3.71l-.06,1.95-.12,2.06q-.12,3.72-.12,6.6v1.89A12.25,12.25,0,0,1,275,346a26.24,26.24,0,0,1-1.89,2.65L272,349.86l-1,1.3a2.43,2.43,0,0,1-1.23.65,8.68,8.68,0,0,1-1.48.23h-.94a20.69,20.69,0,0,1-8.2-1.77q-4.12-1.77-4.12-5.83v-.24a80.12,80.12,0,0,1,.53-8.37,114.12,114.12,0,0,0,.94-13.15c0-.75,0-1.46-.06-2.12s-.06-1.3-.06-2c0-1.73.08-3.62.24-5.66l.29-3.77.36-3.84a5.26,5.26,0,0,1,2-3.77,17.86,17.86,0,0,1,11-4.13,15,15,0,0,1,1.89.12,6.05,6.05,0,0,1,3.71,1.77,5.44,5.44,0,0,1,1.41,3.83q.06,3.9.06,9.73Zm-10,26.94.88-.18a9.34,9.34,0,0,0,1.66-.41,2.29,2.29,0,0,0,.7-.59l.3-.41.29-.41-.65-.47a2.48,2.48,0,0,0-.64-.42c-.67-.31-1.42-.63-2.25-.94q-5.53-1.89-5.54-7.55,0-.65.06-1.35c.24-2.13.39-4.84.47-8.14l.12-4.07.12-4.07.53-8.67.47-8.6a2.76,2.76,0,0,1,.18-.83l.12-.47.06-.41v-.12a1.06,1.06,0,0,0-.83-1.12.67.67,0,0,0-.3-.06,2.35,2.35,0,0,0-1.12.47l-.82.47-.71.53c-1,.75-1.51,2.09-1.59,4l-.3,8.67-.35,8.61c-.08,1.37-.2,3-.35,4.89l-.47,5-.48,4.42c-.23,1.81-.37,3.28-.41,4.42v.59a5.41,5.41,0,0,0,3.89,5.6c.79.28,1.79.59,3,.94l3.07.89ZM270.49,273l.6.09a10.66,10.66,0,0,1,1.64.26,5,5,0,0,1,3.54,2.93,4.56,4.56,0,0,1,.43,1.9,3.89,3.89,0,0,1-.86,2.42q-5.61,7.35-12.44,7.52h-.26q-4,0-5.69-3.11a5.17,5.17,0,0,1-.61-2.34,5.87,5.87,0,0,1,1.47-3.71q4.74-6,11.48-6Zm-6.31,13.13a7.39,7.39,0,0,0,3-.69c1-.4,1.47-.81,1.47-1.21a.25.25,0,0,0-.08-.17,4.6,4.6,0,0,0-1.47-1.21l-.87-.61-.86-.6a5.91,5.91,0,0,1-1-.95,3.44,3.44,0,0,1-.86-1c-.35-.86-.75-1.29-1.21-1.29a.84.84,0,0,0-.34.08,1.39,1.39,0,0,0-.7.52l-.34.43-.35.35a8.16,8.16,0,0,0-1.38,2.07,2.44,2.44,0,0,0-.17.86,2.21,2.21,0,0,0,.6,1.47,3.88,3.88,0,0,0,1.56,1.13l1,.43.95.43Z"/><path class="cls-5" d="M342.52,308.82c.12,1.93.18,3.87.18,5.84a104.21,104.21,0,0,1-.65,11.44l-.41,4.07-.42,4.06c-.31,3.42-.58,6.12-.82,8.08a18.35,18.35,0,0,1-3.07,7.26,8,8,0,0,1-7.19,3.83,14.53,14.53,0,0,1-1.83-.12,11.66,11.66,0,0,1-4.66-1.71,7.51,7.51,0,0,1-3.06-3.13,17,17,0,0,1-2.13-7.6,8.6,8.6,0,0,1,.12-1.42l.36-2.83.41-2.83c.31-2.2.61-4.07.88-5.6A57.05,57.05,0,0,0,321.47,317a31.7,31.7,0,0,0-.47-5.6l-.12-.59-.06-.65c-.08-.51-.15-.93-.23-1.24a1.87,1.87,0,0,0-1.54-1.59H319a2.82,2.82,0,0,0-1.6.88l-.88.89-.83.82-.35.36-6.25,7.6.24,4.66.35,4.72.65,7.84L311,343l.06.47V344a2.37,2.37,0,0,1-.18,1c-1.06,2.59-2,4.69-2.83,6.31a6,6,0,0,1-5.49,3.59H302a46.06,46.06,0,0,1-7.78-1.35q-5.72-1.49-6-7.49l-.24-7.2-.23-7.13-.12-7.67c0-3.1-.12-5.66-.24-7.66,0-.79-.06-1.53-.06-2.24a24.12,24.12,0,0,1,1-7.55q3-8.79,11.44-10.38a11.43,11.43,0,0,1,1.83-.17,5.27,5.27,0,0,1,4.07,1.59,2,2,0,0,0,1.47.82,2.22,2.22,0,0,0,1.54-.76,18.64,18.64,0,0,1,8.31-4.19,29.8,29.8,0,0,1,7.49-.94,35.1,35.1,0,0,1,8.67,1.12,9.8,9.8,0,0,1,5.42,4.13A19.62,19.62,0,0,1,342.52,308.82Zm-36.44,42a.93.93,0,0,0,.06-.29v-.12a1.27,1.27,0,0,0-.88-.65q-5.37-1.07-6.13-1.59-1.77-1.35-2.66-7.25l-.18-1.48-.17-1.47-2.07-24.12.18-4.71c0-1.81.06-3.37.06-4.66a4.08,4.08,0,0,1,.12-.83l.12-.41.05-.41v-.3c0-.47-.27-.76-.82-.88h-.12c-.23,0-.57.23-1,.7l-.65.77-.29.36-.24.35a11,11,0,0,0-1.24,2.71,28.09,28.09,0,0,0-1.24,8.49c0,.71,0,1.44.06,2.18.12,1.58.22,3.46.3,5.66l.12,5.66.53,17.22a5.41,5.41,0,0,0,4.54,5.66c2,.47,4.3.93,6.78,1.36a3.57,3.57,0,0,0,.88.12,5,5,0,0,0,3.6-1.65A1.57,1.57,0,0,0,306.08,350.86Zm9-52.83a6.76,6.76,0,0,0,1-1.18l.41-.59.47-.59-.71.18-.7.18a6.92,6.92,0,0,0-1.3.47c-.67.35-1.4.75-2.18,1.18L310,299a3.78,3.78,0,0,0-2.18,3.25,4.5,4.5,0,0,0,.53,2l-.06.06.12.12-.06-.18,3.42-3.06Zm21.63,48.7.06-.35.12-.35-.65-.06a1.62,1.62,0,0,0-.41-.06h-.18a17.57,17.57,0,0,1-2.41.18,6.36,6.36,0,0,1-3.84-1c-1.29-1-2.06-2.86-2.3-5.66a17.59,17.59,0,0,1-.11-2l.23-8.9.24-8.91V319q0-2.72-.47-8.19a48.17,48.17,0,0,0-.89-7.37,1.6,1.6,0,0,0-.59-.83,1.4,1.4,0,0,0-.65-.35h-.06a14.64,14.64,0,0,0-3.53,2.41.72.72,0,0,0-.18.53,1.76,1.76,0,0,0,.06.42l.12.65.11.64.48,2.19.53,2.12a21.14,21.14,0,0,1,.59,4.36v.77a50.41,50.41,0,0,1-.3,5.13l-.29,2.95-.42,2.95c-.11,1.25-.37,3-.76,5.36l-.42,2.71-.35,2.72a19.16,19.16,0,0,0-.18,2.53,11.69,11.69,0,0,0,1.07,5.19,8.55,8.55,0,0,0,7.19,5.31,5.66,5.66,0,0,0,.82.06,8.53,8.53,0,0,0,7.14-3.9A3,3,0,0,0,336.68,346.73Z"/><path class="cls-5" d="M409.3,309a35.16,35.16,0,0,1,.18,3.77,97.66,97.66,0,0,1-1.36,14.45l-.29,1.71-.36,1.71A23.91,23.91,0,0,0,407,334a24.29,24.29,0,0,1-1.35,6.31c-.28.82-.65,1.81-1.12,2.95l-1.3,2.94a14.63,14.63,0,0,1-2.54,3.6,5.29,5.29,0,0,1-4,2.06,6.19,6.19,0,0,1-3-.88,8,8,0,0,0-3.95-1.18,6.77,6.77,0,0,0-3.9,1.3,9.44,9.44,0,0,1-3.95,1.41,15.45,15.45,0,0,1-2.06.12l-2.12.06h-.53a69.29,69.29,0,0,1-8.79-.71q-9.08-1.17-11.73-9.2l-.59-1.76-.65-1.71c-.59-1.5-1-2.64-1.24-3.42a23.21,23.21,0,0,1-1.3-7.08v-.24a18.35,18.35,0,0,1,3.31-10.67,9,9,0,0,1,3.12-3.06c1-.48,2.38-1.16,4.07-2.07l2-1.06,2.07-1.06a38.46,38.46,0,0,1,8.49-3.24c1.18-.28,2.65-.53,4.42-.77l2.18-.29,2.18-.36a1.22,1.22,0,0,0,1.12-.77,1,1,0,0,0,.06-.35,1.69,1.69,0,0,0-.41-1,7.77,7.77,0,0,0-6.37-3.13,7.42,7.42,0,0,0-.94.06c-1.46.12-2.87.18-4.25.18a42.62,42.62,0,0,1-5.13-.3,4.62,4.62,0,0,1-4-3.42,6.44,6.44,0,0,1-.35-2,4.72,4.72,0,0,1,1.36-3.3,24.65,24.65,0,0,1,5.42-4.72c2.16-1.1,5.37-1.71,9.61-1.83a11.73,11.73,0,0,1,2.89-.35,26,26,0,0,1,9.38,2.18Q407.36,292.85,409.3,309Zm-9.79,38.8a4.7,4.7,0,0,0,.89-1.42l.35-.77.36-.76-.71-.06-.71-.06a4.71,4.71,0,0,1-1.3-.35,6.28,6.28,0,0,0-3.12-.83,5.55,5.55,0,0,0-1.12.12,9.86,9.86,0,0,0-2.07.53l-1.06.35-1.06.36a22.42,22.42,0,0,1-7.84,1.29,33.15,33.15,0,0,1-3.36-.17,16.62,16.62,0,0,1-6.13-1.95c-.79-.43-1.69-1-2.72-1.65l-2.71-1.77Q357,333.82,357,324.27q0-.76.06-1.47l-.06-.42-.18-.41a4.39,4.39,0,0,0-1.94,3,7.3,7.3,0,0,0-.18,1.77v1.77a22.71,22.71,0,0,0,1.36,7.25c.27.9.71,2.06,1.3,3.48l1.29,3.48q2.19,6,9,6.78,3.6.47,5.43.59c2,.19,3.81.29,5.42.29a13.48,13.48,0,0,0,6.61-1.59,8.92,8.92,0,0,1,4.48-1.24,10,10,0,0,1,4.83,1.36,5.53,5.53,0,0,0,2.3.7,2.61,2.61,0,0,0,.48-.05A4.7,4.7,0,0,0,399.51,347.8Zm-21.16-49.12a9.28,9.28,0,0,1,1.06-.06,9.1,9.1,0,0,1,8,4.6l.17.35.12.36a3.8,3.8,0,0,0,.3.65,3.68,3.68,0,0,0,2.41,1.41,5.39,5.39,0,0,0,1.3.18,2.64,2.64,0,0,0,1.53-.41,1.24,1.24,0,0,0,.36-.54l.12-.41.17-.41-1.06-2.71c-.43-1.1-.8-2-1.12-2.72a8.6,8.6,0,0,0-8.2-5.36h-.29a28.13,28.13,0,0,0-7,1.06l-1.88.53a13.34,13.34,0,0,1-1.89.41,11.09,11.09,0,0,1-1.12.06,6.69,6.69,0,0,1-2.71-.53A1.24,1.24,0,0,0,368,295a1.09,1.09,0,0,0-.59.17,1,1,0,0,0-.59,1v.12a2.86,2.86,0,0,0,.82,2,1.75,1.75,0,0,0,.83.35,7.05,7.05,0,0,0,1,.06l2.24.06,2.18.06C375.61,298.8,377.09,298.76,378.35,298.68ZM383.24,315a4.25,4.25,0,0,0-.71-.06q-3.36,0-8,5.31-4.36,5-4.36,8.26a5.13,5.13,0,0,0,.12,1.12l.59,1.06.53,1.12a7.31,7.31,0,0,0,1.35,1.88,22.07,22.07,0,0,0,5.25,3.66,4.83,4.83,0,0,0,2.06.59,1.85,1.85,0,0,0,.71-.12,4.92,4.92,0,0,0,1.95-2.36,34.79,34.79,0,0,0,3.36-15.74c0-.71,0-1.39-.06-2.06C386,316.17,385.05,315.29,383.24,315Zm4.3,6.84a31.83,31.83,0,0,1-1.82,11.21,6.16,6.16,0,0,0-.36,1.53l-.06.82-.11.83,1.65-.41,1.59-.47.59-.24.53-.24a9.67,9.67,0,0,1,1.18-.47,2.78,2.78,0,0,0,2.06-2.47l1.83-14.21a4.7,4.7,0,0,0-.82-2.36,3.79,3.79,0,0,0-2.25-.89,14.42,14.42,0,0,0-1.94-.12h-.3q-1.35,0-1.71.48a1.83,1.83,0,0,0-.35,1.29,6.73,6.73,0,0,0,.06.83C387.46,318.65,387.54,320.28,387.54,321.85Z"/><path class="cls-5" d="M420.69,331.4l.54-9.13c.19-3.62.41-6.67.64-9.14q.18-2.25.18-5.49,0-3.7-.23-8.78-.18-3.36-.48-7.73c-.08-.94-.17-2.1-.29-3.48l-.12-1.59-.06-1.47c-.12-1.42-.18-2.79-.18-4.13q0-1.65.12-3.24a10.08,10.08,0,0,1,4.25-7.61,12.24,12.24,0,0,1,7.72-2.83h.47l1.48.18,1.41.17c3.27.44,5,2.25,5.31,5.43.08,1.1.22,2.77.41,5l.18,1.53.12,1.54.29,3.18q.76,8.15.95,11.32v1.48c0,1.77.23,2.83.59,3.18s1,.47,2.06.47c.39,0,.84,0,1.36-.06,1.17-.11,2.47-.17,3.89-.17,1.65,0,3.48.08,5.48.23a19,19,0,0,1,14.33,7.84,19.42,19.42,0,0,1,4.18,11.8,18.94,18.94,0,0,1-.11,2.12q-.76,7.2-6.84,14a20.86,20.86,0,0,1-7.43,5.61,19.92,19.92,0,0,0-2.18,1.12L456.6,344a25.22,25.22,0,0,1-4.36,2.24,64.54,64.54,0,0,0-6.31,2.66l-3.07,1.53-3,1.47a14,14,0,0,1-6.13,1.54,12.54,12.54,0,0,1-6.43-1.83,12.82,12.82,0,0,1-6.43-10.85c-.08-1.26-.12-2.81-.12-4.66l.06-2.36V331.4Zm3.07-23.4-.18,2.35-.17,2.36c-.28,4-.47,7.35-.59,10.14s-.14,5.72-.18,9.14l.06,9.14a8.5,8.5,0,0,0,3.42,7.37,13.57,13.57,0,0,0,7.43,2.42h.65a12.65,12.65,0,0,0,7.31-2.18.92.92,0,0,0,.29-.35,1,1,0,0,0,.06-.3V348a.78.78,0,0,0-.65-.59,3.1,3.1,0,0,0-.76-.11h-.24a1.92,1.92,0,0,0-.47.05,4.32,4.32,0,0,1-1.59.3,4.85,4.85,0,0,1-1.77-.35,8.5,8.5,0,0,1-1.48-.77l-1.41-1c-2.48-1.73-3.79-3.68-3.95-5.84l-.3-3.07-.29-3.12q-.3-3.66-.35-6.13v-5.25q0-11.26.17-28.36c0-1,0-2.42-.06-4.31,0-.74-.08-1.65-.11-2.71l-.12-2.83q-.18-4.89-.18-7.61c0-.9,0-1.63.06-2.18v-1.71l-.06-1.71a1.89,1.89,0,0,0-.47-.06,2.93,2.93,0,0,0-1.71.59,6.26,6.26,0,0,0-1.47,1.54,10.49,10.49,0,0,0-1.95,3.89,13.78,13.78,0,0,0-.3,2.42c0,.58,0,1.41.06,2.47q.06,2.36.77,10.5l.24,3.18.23,3.07c.16,2.24.28,4.07.36,5.48C424,304.73,423.88,306.15,423.76,308Zm19.75,15.56h.06v8.85l.12,4.89c0,1,.35,1.53.94,1.53a2,2,0,0,0,1-.35l.76-.41.83-.42a10.42,10.42,0,0,0,1.53-1,5.46,5.46,0,0,0,2.12-3l.71-2.72.71-2.71a56.37,56.37,0,0,0,1.18-5.54,9.16,9.16,0,0,0,.18-1.83q0-4.83-3.72-11.2a2.77,2.77,0,0,0-2.59-1.42,7.23,7.23,0,0,0-2.19.41c-1.1.36-1.65,1.4-1.65,3.13Zm11,2.3-1.06,4.78v.47l.12.47.64-.06a1,1,0,0,0,.54-.12c2.27-1.17,3.93-3.79,5-7.84a21.13,21.13,0,0,0,.65-4.83,10,10,0,0,0-1-4.66,23.28,23.28,0,0,0-4.18-5.37,1.64,1.64,0,0,0-1.12-.29h-.3l-.94.06H452l.17,1.12c.08.43.16.8.24,1.12l.35.88.41,1c.32.74.55,1.35.71,1.82l.89,3.31.88,3.3Z"/><path class="cls-5" d="M484.45,325v-.77q0-8.79,6.49-17.51a12.91,12.91,0,0,1,6.13-4.78q5.48-1.89,12.67-4.07a9.39,9.39,0,0,1,2.42-.29h.47l1.48.12,1.47.17a41.24,41.24,0,0,1,7.43,1.83l3.6,1.3,3.6,1.24a15.63,15.63,0,0,1,9.84,9.08l.89,2.3.94,2.3a20,20,0,0,1,1.06,4.77q.06.88.06,1.71,0,12.39-11.38,21.17l-1.47,1.12-1.42,1.12a35.45,35.45,0,0,0-2.83,2.36,16.14,16.14,0,0,1-7.66,4.24,36.3,36.3,0,0,1-8.73,1.12c-.51,0-1,0-1.53-.05q-6.32-.36-12.09-6.08a91.24,91.24,0,0,1-8.73-10.08,13.71,13.71,0,0,1-2.12-5.42,22.56,22.56,0,0,1-.41-3.42l-.06-1.71ZM505,301.75l-.59-.12a3.93,3.93,0,0,0-.65-.06,2.15,2.15,0,0,0-.53.06A20.77,20.77,0,0,0,492,308.29a19.92,19.92,0,0,0-5.43,11.85c-.12,1.38-.17,2.93-.17,4.66,0,2,.07,4.23.23,6.66a7.84,7.84,0,0,0,1.71,4.54A123.32,123.32,0,0,0,498,346.56a18.29,18.29,0,0,0,11.74,4.89q.71.06,1.35.06a20.41,20.41,0,0,0,11.15-3.3l0,.12H519.3c-1.18,0-2.17,0-2.95.11a18.49,18.49,0,0,1-2.07.12,14,14,0,0,1-7.37-2.06l-1.29-.77-1.24-.82c-1-.59-1.85-1.06-2.6-1.42q-4.59-2.3-8.13-8.31a15,15,0,0,1-2.12-7.43,13.64,13.64,0,0,1,.58-3.95,25,25,0,0,0,.83-3.83l.24-2,.29-1.95a12.12,12.12,0,0,1,.35-1.18l.48-1.17q2.82-7.38,11.2-12l.12-.24.06-.18-.06-.11-.12-.12.18.76Zm16.63,21.69v-.88a39.38,39.38,0,0,0-1.83-10.32,11,11,0,0,0-1.71-3,2.27,2.27,0,0,0-1.65-1,2.22,2.22,0,0,0-1.42.59l-1.35,1.24-1.36,1.3a16.42,16.42,0,0,0-2.42,2.71q-3.54,5.13-4.6,14.45v.41a8,8,0,0,0,.12,1.3l.12.88.23.83q.82,4,6.73,7.48a5.37,5.37,0,0,0,2.71.83,3.87,3.87,0,0,0,1.53-.3,4.32,4.32,0,0,0,2.54-3.36q.59-2.65,1.24-6.54l.53-3.3Zm1.41-.41-.18,1.65c-.11,1.26-.23,2.32-.35,3.19l-.59,3.65-.53,3.66v.18a1.76,1.76,0,0,0,.06.41l.12.35.11.3.36-.18.35-.12a3,3,0,0,0,.53-.41,24.53,24.53,0,0,0,5.43-9.85,20.8,20.8,0,0,0-1.48-14.33q-1.93-4.12-5.42-4.12h-.12c-.94,0-1.49.15-1.65.35a.41.41,0,0,0-.12.3,2.61,2.61,0,0,0,.47,1.17,22,22,0,0,1,2.18,6c.2.9.38,1.93.54,3.07l.41,3.06Z"/><path class="cls-2" d="M415.2,71.2a13.19,13.19,0,0,0,2.06.61A2.34,2.34,0,0,0,420,68.67c-.84-2-2-3.86-2.92-5.69-.49-.45-.88-.83-1.29-1.18-3.45-2.89-7.45-5-10.61-8.35-1.56-1.63-4-1.12-5.68.62a4.76,4.76,0,0,0,.19,6.7A45.27,45.27,0,0,0,415.2,71.2Z"/><path class="cls-2" d="M553,86.39a8.93,8.93,0,0,0,3.46,1.2,2.51,2.51,0,0,0,2.17-.73,4.06,4.06,0,0,0,.23-2.91A10.14,10.14,0,0,0,557,81.39,58.2,58.2,0,0,0,551,75.22a37.1,37.1,0,0,0-5.81-3.78c-1.44-.79-3.09-1.11-4.5,0-1.14.87-1.25,3.21-.11,4.88a18,18,0,0,0,3.54,4C547,82.49,550,84.47,553,86.39Z"/><path class="cls-2" d="M288.83,63c1.24.42,2.48.38,3.08-1.12.72-1.81.61-3.53-.58-4.44-4.38-3.37-8.61-7-13.54-9.5-.53-.28-1.29,0-2.13-.06-.3,1.39-1,2.65-.74,3.72.79,3.52,1.77,7,5.85,8.42C283.48,60.93,286.12,62.08,288.83,63Z"/><path class="cls-2" d="M598.75,225c-.83-.65-1.78-1.92-2.47-1.81-1.5.23-2,1.77-2.2,3.25-.33,2.33.53,4.22,2.91,6.23,2.47,4.83,8,5.83,13,7.6a1.66,1.66,0,0,0,2-2.22,20.46,20.46,0,0,0-.91-2c-1.63-3.49-4.88-5.25-7.74-7.43C601.82,227.45,600.29,226.2,598.75,225Z"/><path class="cls-2" d="M562.73,53.8c3.58,2.76,7.11,5.58,10.78,8.22a13.21,13.21,0,0,0,3.92,1.63,2.18,2.18,0,0,0,2.63-1.24,2,2,0,0,0-.41-2.86c-.28-.23-5.62-5.72-8.48-7.54a23.26,23.26,0,0,0-7-2.53,3.28,3.28,0,0,0-2.61,1.16c-.8.93-.09,2,.72,2.81A3.54,3.54,0,0,0,562.73,53.8Z"/><path class="cls-2" d="M464.78,58.49c.26-.74.66-1.27.55-1.69-.33-1.34-.49-3-1.36-3.89a28.13,28.13,0,0,0-11.81-7.35,5.77,5.77,0,0,0-3.11-.07,2.64,2.64,0,0,0-1.72,1.61,2.78,2.78,0,0,0,.9,2.27,97.77,97.77,0,0,0,14.58,9A5.25,5.25,0,0,0,464.78,58.49Z"/><path class="cls-2" d="M527,101.19a3.56,3.56,0,0,0,1,.21,1.38,1.38,0,0,0,1.52-2c-.68-1.27-1.51-2.46-2.93-4.74a73.05,73.05,0,0,0-6.21-4.94c-2.66-1.75-4.59-1.7-5.2-.32-.87,2,.56,3.42,1.69,4.72C519.64,97.31,523.26,99.32,527,101.19Z"/><path class="cls-3" d="M538.64,4.76a33.15,33.15,0,0,0,4.49,3C546.07,9.36,548,8.2,548,5a14.16,14.16,0,0,1-.11-3.17c.53-2.33-.57-3.65-2.39-4.88-3.26-2.23-6.41-4.63-9.64-6.92a10.15,10.15,0,0,0-2.35-1.29,4.91,4.91,0,0,0-4.77,1.37,4.58,4.58,0,0,0-.22,5c.59.9,1.34,1.71,2,2.56l-.21.28C533.07.19,535.81,2.53,538.64,4.76Z"/><path class="cls-3" d="M537.15,139.05a17.61,17.61,0,0,0,1.71,2.12,19.21,19.21,0,0,0,9,4.53c2.36.53,3.92-1.72,3.05-4a6.83,6.83,0,0,0-.52-1c-2.83-4.86-7.27-7.8-12-10.42-1.21-.67-2.65-.76-3.43.28a4.41,4.41,0,0,0-.82,3.38A19.55,19.55,0,0,0,537.15,139.05Z"/><path class="cls-3" d="M488.65,161.63a16.34,16.34,0,0,0,6.67,2.73c2.12.38,2.67-.68,2.2-2.28a5.49,5.49,0,0,0-1.53-2.7c-3.53-2.79-7.16-5.45-10.82-8.07a10.66,10.66,0,0,0-3.37-1.56,7.35,7.35,0,0,0-2.53.24,9.35,9.35,0,0,0-.78,1.14c-.26,3.41,2.76,5.82,5.71,7.73A27.73,27.73,0,0,1,488.65,161.63Z"/><path class="cls-3" d="M555.65,184.67a5.31,5.31,0,0,0-1.27-5.25c-2.83-3.07-7.16-3.93-9.88-7.19-.43-.52-1.68-.52-2.52-.48-1.57.07-3,1-2,3.2.67,1.46,1.19,3,1.49,3.73,3.76,4.75,8.27,6.06,13,6.7A1.41,1.41,0,0,0,555.65,184.67Z"/><path class="cls-3" d="M504.15,49.2a2.86,2.86,0,0,0-2.32,4.52c.75,1.21,1.62,2.36,2.81,4.07,2.22,1.25,4.94,2.88,7.75,4.32a2.33,2.33,0,0,0,3.26-.73,2.88,2.88,0,0,0,0-3.48c-2.13-2.89-4.15-5.95-7.48-7.61A9.76,9.76,0,0,0,504.15,49.2Z"/><path class="cls-3" d="M347.75,25.47a8,8,0,0,0,7.59.79,2.28,2.28,0,0,0,1.1-1c.44-1-.67-4.15-1.61-4.76-1.62-1.06-3.27-2.08-4.91-3.11-3.2-2-7.25-4.5-10.13-2.18-.41.32-.83.62-1.22,1-1.58,1.44-1.53,1.95.27,3.18S345.93,24.38,347.75,25.47Z"/><path class="cls-3" d="M580.06,89.93c-.26.72.49,1.85.86,2.77.12.31.46.54.7.81l.07-.06a20.29,20.29,0,0,0,1.69,2.09,18.51,18.51,0,0,0,7.75,4.6A1.59,1.59,0,0,0,593,97.71a50.8,50.8,0,0,0-3.67-4.61,12.76,12.76,0,0,0-6.1-4.2C581.92,88.53,580.51,88.66,580.06,89.93Z"/><path class="cls-3" d="M418.48,7.66c1.25-.08,1.73-.83,1.31-2.17-.22-.67-.65-1.28-.89-1.95a12.13,12.13,0,0,0-1.62-3.3h0c-.06-.08-.13-.15-.2-.23-1.82-2.09-6.57-7.45-10.38-6s-2.5,2.79-2.22,3.53,2.27,5.6,6.46,8.22A11.85,11.85,0,0,0,418.48,7.66Z"/><path class="cls-3" d="M348,75a8.45,8.45,0,0,0,2.21,1.22,9.15,9.15,0,0,0,3.65.17,1.94,1.94,0,0,0,1.22-1.38,6.85,6.85,0,0,0-1.15-4.26h0c0-.06-.08-.1-.12-.15h0s-.08-.11-.12-.15c-1.74-2-8.3-8-11.27-6.81-3.15,1.29-2.61,2.42-2.31,2.79S344.26,72.93,348,75Z"/></svg>