<svg id="Ebene_1" data-name="Ebene 1" xmlns="http://www.w3.org/2000/svg" viewBox="0 0 1445.68 170.55"><defs><style>.cls-1{fill:#f5f3f2;}</style></defs><path class="cls-1" d="M230.56,123.12H185.17l-7.3,22.69H143L193.3,3.14h29.17L272.7,145.82H237.85Zm-9.32-29.19L207.87,51.78,194.49,93.93Z"/><path class="cls-1" d="M436.47,3.19l0,142.66H407.26L358.64,65.19l0,80.65H326.2l0-142.66h29.18L404,83.84l0-80.65Z"/><path class="cls-1" d="M593.72,3.22V32.4H561.29l0,113.48H528.85l0-113.48H496.45V3.2Z"/><path class="cls-1" d="M763.94,3.26l0,142.66H734.73L686.11,65.25V145.9H653.68l0-142.66h29.19L731.5,83.9l0-80.65Z"/><path class="cls-1" d="M862.83,32.46V60h35.67V89.2H862.82v27.56h48.64V146l-81.06,0,0-142.66,81.06,0V32.47Z"/><path class="cls-1" d="M1047.63,95.11l24.3,50.87h-35.66l-18.84-43.77H1007.1V146H974.67l0-142.66h41.75c38.5,0,55.52,23.11,55.51,48.64C1072,69.18,1063.44,86,1047.63,95.11ZM1007.1,73h9.12c14,0,23.31-8.92,23.31-20.26,0-12.77-9.32-20.27-23.3-20.27h-9.12Z"/><path class="cls-1" d="M1130.3,146l0-142.66h32.42l0,142.66Z"/><path class="cls-1" d="M1339.45,3.37l0,142.66h-29.18l-48.62-80.66V146h-32.42l0-142.66h29.19L1307,84l0-80.66Z"/><path class="cls-1" d="M1411.77,67.58a20.35,20.35,0,0,0,28,0,18.62,18.62,0,0,0,0-27.27,20.34,20.34,0,0,0-28,0,18.25,18.25,0,0,0-6,13.63,18.48,18.48,0,0,0,5.94,13.64Z"/><path class="cls-1" d="M1439.73,115.66a20.35,20.35,0,0,0-28,0,18.48,18.48,0,0,0-5.94,13.63c0,5.87,2.59,11.12,7.51,15.27.16.14,2,1.61,2,1.61l-9.46,24.51h17.45l1.35-1.7c1.36-1.68,3.8-5.05,7.47-10.32s6.51-9.79,8.59-13.56c3.29-5.89,5-11.21,5-15.81a18.47,18.47,0,0,0-5.93-13.64Z"/><path class="cls-1" d="M57.35,52.77l-5.11-1.92c-10.13-3.77-13-7.74-13-13.09,0-4.37,5.06-9.32,13-9.32s14.64,3.65,19.22,7.23L90,13.28C72.83-.83,56.92-.13,52.66-.13,26.92-.13,6.86,14.94,6.85,38.35c0,19.1,10.07,29.73,30.18,39,4.11,1.91,8.63,3.75,13.59,5.61,11.14,4.16,16.2,8.93,16.2,18.45,0,7.34-6.28,15.86-17.83,15.86-10.79,0-21-5.57-30.71-17.2L0,122.25c5.51,7.12,23.12,23.61,49,23.62,30.4,0,50.26-21.81,50.27-46.41C99.25,70,79.64,61.19,57.35,52.77Z"/></svg>