<?xml version="1.0" standalone="no"?>
<!DOCTYPE svg PUBLIC "-//W3C//DTD SVG 20010904//EN"
 "http://www.w3.org/TR/2001/REC-SVG-20010904/DTD/svg10.dtd">
<svg version="1.0" xmlns="http://www.w3.org/2000/svg"
 width="700.000000pt" height="700.000000pt" viewBox="0 0 700.000000 700.000000"
 preserveAspectRatio="xMidYMid meet">
<metadata>
Created by potrace 1.14, written by Peter Selinger 2001-2017
</metadata>
<g transform="translate(0.000000,700.000000) scale(0.100000,-0.100000)"
fill="#000000" stroke="none">
<path d="M0 3500 l0 -3500 3500 0 3500 0 0 3500 0 3500 -3500 0 -3500 0 0
-3500z m3725 2435 c91 -25 233 -99 308 -160 136 -112 242 -277 283 -440 28
-112 23 -286 -10 -400 -78 -263 -274 -463 -544 -556 -95 -33 -101 -34 -262
-34 -161 0 -168 1 -260 33 -319 110 -532 366 -571 684 -49 408 231 786 656
884 80 18 317 12 400 -11z m-63 -2539 c257 -50 485 -223 594 -451 55 -114 76
-213 76 -345 0 -291 -124 -565 -505 -1116 -109 -158 -250 -349 -304 -412 l-28
-33 -451 3 -450 3 141 365 c77 201 158 410 179 466 l38 100 -57 60 c-100 105
-175 239 -210 379 -24 94 -24 275 -1 370 64 257 275 489 523 577 138 48 311
61 455 34z"/>
</g>
</svg>
