<svg id="Ebene_1" data-name="Ebene 1" xmlns="http://www.w3.org/2000/svg" viewBox="0 0 2204 1080"><defs><style>.cls-1{fill:#252525;}</style></defs><polygon class="cls-1" points="1394.04 809.96 1124 1080 1394.04 1080 1664 809.96 1394.04 540 1664 270.04 1394.04 0 1124 0 1394.04 270.04 1124 540 1394.04 809.96"/><polygon class="cls-1" points="1664 540 1934.04 809.96 1664 1080 1934.04 1080 2204 809.96 1934.04 540 2204 270.04 1934.04 0 1664 0 1934.04 270.04 1664 540"/><polygon class="cls-1" points="55.01 179.22 0 126.33 0 168.62 33.88 201.2 55.01 179.22"/><polygon class="cls-1" points="1024.99 115.73 1080 168.62 1080 126.33 1046.13 93.76 1024.99 115.73"/><rect class="cls-1" x="825.58" y="694.29" width="30.48" height="123.3" transform="translate(-286.86 838.07) rotate(-46.12)"/><rect class="cls-1" x="558.09" y="696.83" width="30.48" height="123.3" transform="translate(-235.87 259.28) rotate(-21.24)"/><polygon class="cls-1" points="423.95 35.13 428.41 0 397.69 0 393.72 31.3 423.95 35.13"/><polygon class="cls-1" points="409.23 988.97 397.69 1080 428.41 1080 439.46 992.8 409.23 988.97"/><polygon class="cls-1" points="617.2 1034.85 634.16 1080 666.71 1080 645.73 1024.13 617.2 1034.85"/><polygon class="cls-1" points="689.09 59.55 666.72 0 634.16 0 660.56 70.27 689.09 59.55"/><rect class="cls-1" x="286.33" y="524.76" width="123.3" height="30.48" transform="translate(-292.23 593.1) rotate(-61.94)"/><polygon class="cls-1" points="917.9 63.08 925.9 0 895.16 0 887.65 59.25 917.9 63.08"/><polygon class="cls-1" points="903.16 1016.92 895.16 1080 925.9 1080 933.4 1020.76 903.16 1016.92"/><rect class="cls-1" x="354.94" y="844.75" width="123.31" height="30.48" transform="translate(-113.36 64.83) rotate(-7.84)"/><rect class="cls-1" x="194.48" y="897.8" width="30.48" height="123.31" transform="translate(-741.01 713.17) rotate(-63.15)"/><rect class="cls-1" x="617.04" y="469.6" width="30.47" height="123.31" transform="translate(-138.29 234.21) rotate(-18.96)"/><rect class="cls-1" x="724.17" y="357.25" width="123.3" height="30.47" transform="translate(83.21 884.94) rotate(-61.47)"/><rect class="cls-1" x="148.07" y="78.52" width="123.3" height="30.48" transform="translate(-18.78 117.43) rotate(-30)"/><rect class="cls-1" x="666.56" y="900.19" width="123.3" height="30.48" transform="translate(-360.11 486.65) rotate(-29.99)"/><rect class="cls-1" x="209.08" y="724.28" width="123.3" height="30.48" transform="translate(-333.44 234.39) rotate(-29.99)"/><rect class="cls-1" x="125.47" y="296.79" width="30.48" height="123.31" transform="translate(-236.66 281.79) rotate(-57.09)"/><polygon class="cls-1" points="110.26 542.04 0 539.76 0 570.25 109.63 572.52 110.26 542.04"/><polygon class="cls-1" points="48.3 794.03 0 779.49 0 811.32 39.51 823.22 48.3 794.03"/><polygon class="cls-1" points="1001.45 787.66 1080 811.32 1080 779.49 1010.24 758.48 1001.45 787.66"/><rect class="cls-1" x="303.3" y="205.08" width="123.31" height="30.48" transform="translate(0.07 440.75) rotate(-62.26)"/><rect class="cls-1" x="479.36" y="281.42" width="30.48" height="123.31" transform="translate(102.73 799.98) rotate(-84.13)"/><rect class="cls-1" x="919.22" y="452.35" width="30.47" height="123.3" transform="translate(-91.7 223.48) rotate(-13.01)"/><rect class="cls-1" x="936.4" y="191.04" width="30.48" height="123.29" transform="translate(435.29 1091.05) rotate(-73.24)"/><polygon class="cls-1" points="30.65 985.46 0 1003.15 0 1038.35 45.89 1011.86 30.65 985.46"/><polygon class="cls-1" points="1019.11 1073.51 1080 1038.35 1080 1003.15 1003.87 1047.11 1019.11 1073.51"/><rect class="cls-1" x="620.67" y="185.96" width="123.3" height="30.48" transform="translate(-9.18 368.14) rotate(-30)"/></svg>