<svg id="Ebene_1" data-name="Ebene 1" xmlns="http://www.w3.org/2000/svg" viewBox="0 0 2204 1080"><defs><style>.cls-1{fill:#f5f3f2;}</style></defs><polygon class="cls-1" points="809.97 270.04 1080 0 809.97 0 540 270.04 809.97 540 540 809.97 809.97 1080 1080 1080 809.97 809.97 1080 540 809.97 270.04"/><polygon class="cls-1" points="540 540 269.96 270.04 540 0 269.96 0 0 270.04 269.96 540 0 809.97 269.96 1080 540 1080 269.96 809.97 540 540"/><polygon class="cls-1" points="2203.8 0.2 2112.81 0.2 2158.3 45.69 2118.43 85.56 2033.05 0.2 1941.86 0.2 2072.83 131.15 2032.95 171.02 1862.11 0.2 1770.91 0.2 1987.35 216.6 1947.47 256.48 1691.16 0.2 1599.97 0.2 1901.88 302.06 1862 341.94 1520.22 0.2 1429.02 0.2 1816.4 387.52 1776.53 427.39 1349.26 0.2 1258.08 0.2 1730.93 472.98 1691.05 512.85 1178.31 0.2 1124 0.2 1124 37.08 1645.46 558.44 1605.58 598.31 1124 116.83 1124 211.49 1558.24 645.63 1518.35 685.51 1124 291.24 1124 385.89 1471.03 732.84 1431.14 772.71 1124 465.63 1124 560.28 1383.81 820.04 1343.92 859.91 1124 640.03 1124 734.68 1296.59 907.24 1256.71 947.11 1124 814.43 1124 909.09 1209.37 994.44 1169.49 1034.31 1124 988.82 1124 1080 1124.2 1079.8 2204 1079.8 2204 0 2203.8 0.2"/></svg>