<svg id="Ebene_1" data-name="Ebene 1" xmlns="http://www.w3.org/2000/svg" viewBox="0 0 1080 1080"><defs><style>.cls-1{fill:#f5f3f2;}</style></defs><polygon class="cls-1" points="0 0 0 53.88 53.88 0 0 0"/><polygon class="cls-1" points="162.12 0 0 162.12 0 269.88 269.88 0 162.12 0"/><polygon class="cls-1" points="378.12 0 0 378.13 0 485.89 485.88 0 378.12 0"/><polygon class="cls-1" points="594.12 0 0 594.12 0 701.88 701.88 0 594.12 0"/><polygon class="cls-1" points="810.12 0 0 810.12 0 917.87 917.87 0 810.12 0"/><polygon class="cls-1" points="1080 0 1026.12 0 0 1026.12 0 1080 53.88 1080 1080 53.88 1080 0"/><polygon class="cls-1" points="269.88 1080 1080 269.88 1080 162.12 162.12 1080 269.88 1080"/><polygon class="cls-1" points="485.89 1080 1080 485.89 1080 378.13 378.13 1080 485.89 1080"/><polygon class="cls-1" points="701.88 1080 1080 701.88 1080 594.12 594.12 1080 701.88 1080"/><polygon class="cls-1" points="917.87 1080 1080 917.87 1080 810.12 810.12 1080 917.87 1080"/><polygon class="cls-1" points="1080 1080 1080 1026.12 1026.12 1080 1080 1080"/></svg>