<svg id="Ebene_1" data-name="Ebene 1" xmlns="http://www.w3.org/2000/svg" viewBox="0 0 3326 1080"><defs><style>.cls-1{fill:#252525;}</style></defs><polygon class="cls-1" points="1079.8 0.21 988.81 0.21 1034.3 45.69 994.42 85.56 909.05 0.21 817.86 0.21 948.83 131.15 908.95 171.02 738.11 0.21 646.91 0.21 863.35 216.6 823.47 256.48 567.16 0.21 475.97 0.21 777.88 302.06 738 341.94 396.22 0.21 305.02 0.21 692.4 387.52 652.53 427.39 225.26 0.21 134.08 0.21 606.93 472.98 567.05 512.85 54.31 0.21 0 0.21 0 37.08 521.46 558.44 481.58 598.31 0 116.83 0 211.49 434.25 645.63 394.35 685.51 0 291.24 0 385.89 347.03 732.84 307.14 772.71 0 465.63 0 560.28 259.81 820.04 219.92 859.91 0 640.03 0 734.68 172.59 907.24 132.71 947.11 0 814.43 0 909.09 85.37 994.44 45.49 1034.31 0 988.82 0 1080 0.2 1079.8 1080 1079.8 1080 0 1079.8 0.21"/><path class="cls-1" d="M1121,0V1080c298.24,0,540-241.76,540-540S1419.24,0,1121,0Z" transform="translate(0 0)"/><path class="cls-1" d="M2201,304.8V0c-298.23,0-540,241.77-540,540s241.77,540,540,540V775.2c-129.69,0-235.2-105.51-235.2-235.2S2071.31,304.8,2201,304.8Z" transform="translate(0 0)"/><polygon class="cls-1" points="2246 0 2246 53.88 2299.88 0 2246 0"/><polygon class="cls-1" points="2408.12 0 2246 162.12 2246 269.88 2515.88 0 2408.12 0"/><polygon class="cls-1" points="2624.12 0 2246 378.13 2246 485.89 2731.88 0 2624.12 0"/><polygon class="cls-1" points="2840.12 0 2246 594.12 2246 701.88 2947.88 0 2840.12 0"/><polygon class="cls-1" points="3056.11 0 2246 810.12 2246 917.88 3163.87 0 3056.11 0"/><polygon class="cls-1" points="3326 0 3272.12 0 2246 1026.13 2246 1080 2299.88 1080 3326 53.88 3326 0"/><polygon class="cls-1" points="2515.88 1080 3326 269.88 3326 162.12 2408.12 1080 2515.88 1080"/><polygon class="cls-1" points="2731.89 1080 3326 485.89 3326 378.13 2624.13 1080 2731.89 1080"/><polygon class="cls-1" points="2947.88 1080 3326 701.88 3326 594.12 2840.12 1080 2947.88 1080"/><polygon class="cls-1" points="3163.87 1080 3326 917.88 3326 810.12 3056.11 1080 3163.87 1080"/><polygon class="cls-1" points="3326 1080 3326 1026.13 3272.12 1080 3326 1080"/></svg>